<?xml version="1.0" standalone="no"?><!DOCTYPE svg PUBLIC "-//W3C//DTD SVG 1.1//EN" "http://www.w3.org/Graphics/SVG/1.1/DTD/svg11.dtd"><svg t="1629959189222" class="icon" viewBox="0 0 1024 1024" version="1.1" xmlns="http://www.w3.org/2000/svg" p-id="3609" xmlns:xlink="http://www.w3.org/1999/xlink" width="200" height="200"><defs><style type="text/css"></style></defs><path d="M123.904 413.779c16.28 0 29.52 13.009 29.896 29.199l0.008 0.706v129.265c0 124.62 94.217 225.265 210.364 227.266l3.527 0.03 354.283-0.001v-72.543c0-10.163 8.239-18.4 18.4-18.4a18.4 18.4 0 0 1 9.783 2.815l163.218 102.45c8.607 5.402 11.204 16.759 5.802 25.366a18.4 18.4 0 0 1-5.802 5.802l-163.218 102.45c-8.607 5.402-19.964 2.804-25.367-5.803a18.4 18.4 0 0 1-2.815-9.782l-0.001-72.544H367.699c-150.013 0-271.253-126.324-273.662-282.369L94 572.95V443.684c0-16.516 13.388-29.905 29.904-29.905z m185.81-280.158a18.4 18.4 0 0 1 2.815 9.782l-0.001 72.541H646.11c150.013 0 271.252 126.325 273.662 282.37l0.037 4.737v129.265c0 16.516-13.389 29.905-29.904 29.905-16.28 0-29.521-13.009-29.896-29.199l-0.008-0.706V503.051c0-124.62-94.218-225.265-210.365-227.266l-3.526-0.03H312.528V348.3c0 10.162-8.237 18.4-18.4 18.4a18.4 18.4 0 0 1-9.781-2.816l-163.218-102.45c-8.607-5.402-11.205-16.759-5.803-25.366a18.4 18.4 0 0 1 5.803-5.802l163.218-102.448c8.607-5.402 19.964-2.804 25.366 5.803z" fill="#4a5ef2" p-id="3610"></path></svg>