<svg xmlns="http://www.w3.org/2000/svg" xmlns:xlink="http://www.w3.org/1999/xlink" viewBox="0 0 851.43 615.94"><defs><style>.cls-1,.cls-2{opacity:0.6;}.cls-1{fill:url(#未命名的渐变_103);}.cls-2{fill:url(#未命名的渐变_106);}.cls-3{fill:#13192c;}.cls-4{fill:#e4e4e4;}.cls-5{fill:#343434;}.cls-6{fill:#8c8c8c;}.cls-7{fill:#3c3c3b;}.cls-8{fill:#141414;}.cls-9{fill:#393939;}.cls-10{fill:#c9e8fa;}.cls-10,.cls-13,.cls-14,.cls-20{fill-rule:evenodd;}.cls-11,.cls-13{fill:#3959ed;}.cls-12,.cls-20{fill:#fff;}.cls-14{fill:#71a7da;}.cls-15{fill:url(#未命名的渐变_6);}.cls-16{fill:#77e1b2;}.cls-17{fill:#7355d4;}.cls-18{fill:url(#未命名的渐变_3);}.cls-19{fill:#f6cc6d;}.cls-21{fill:#0c0e11;}.cls-22{fill:#e5b640;}</style><linearGradient id="未命名的渐变_103" x1="355.06" y1="33.13" x2="355.06" y2="615.94" gradientUnits="userSpaceOnUse"><stop offset="0" stop-color="#5065de"/><stop offset="0.83" stop-color="#73e2ce" stop-opacity="0"/></linearGradient><linearGradient id="未命名的渐变_106" x1="752.33" x2="752.33" y2="198.19" gradientUnits="userSpaceOnUse"><stop offset="0" stop-color="#5687d9" stop-opacity="0.76"/><stop offset="0.83" stop-color="#73e2ce" stop-opacity="0"/></linearGradient><linearGradient id="未命名的渐变_6" x1="603" y1="276.37" x2="531.01" y2="348.35" gradientTransform="translate(-10.35 -218.52) rotate(4.76)" gradientUnits="userSpaceOnUse"><stop offset="0" stop-color="#99e2a8"/><stop offset="1" stop-color="#72a8de"/></linearGradient><linearGradient id="未命名的渐变_3" x1="177.8" y1="172.46" x2="404.33" y2="172.46" gradientUnits="userSpaceOnUse"><stop offset="0.01" stop-color="#73e2ce"/><stop offset="1" stop-color="#5065de"/></linearGradient></defs><title>资源 194</title><g id="图层_2" data-name="图层 2"><g id="图层_1-2" data-name="图层 1"><circle class="cls-1" cx="355.06" cy="324.54" r="291.41"/><circle class="cls-2" cx="752.33" cy="99.09" r="99.09"/><path class="cls-3" d="M210.05,198.27a3.78,3.78,0,1,1,1.7-.41l0,0A3.64,3.64,0,0,1,210.05,198.27Z"/><path class="cls-3" d="M70.78,267.12A3.76,3.76,0,0,1,69.09,260a3.79,3.79,0,0,1,5.08,1.66,3.72,3.72,0,0,1-1.64,5l-.08,0A3.73,3.73,0,0,1,70.78,267.12Zm19.89-9.84a3.76,3.76,0,1,1,3.39-5.45,3.72,3.72,0,0,1-1.63,5l-.08,0A3.74,3.74,0,0,1,90.67,257.28Zm19.9-9.83A3.76,3.76,0,1,1,114,242a3.7,3.7,0,0,1-1.64,5l-.08,0A3.7,3.7,0,0,1,110.57,247.45Zm19.9-9.84a3.75,3.75,0,0,1-1.68-7.11,3.8,3.8,0,0,1,5.07,1.66,3.73,3.73,0,0,1-1.64,5l-.08,0A3.73,3.73,0,0,1,130.47,237.61Zm19.89-9.83a3.76,3.76,0,0,1-1.68-7.11,3.78,3.78,0,0,1,5.07,1.66,3.71,3.71,0,0,1-1.63,5l-.08,0A3.74,3.74,0,0,1,150.36,227.78Zm19.9-9.84a3.75,3.75,0,0,1-1.68-7.11,3.8,3.8,0,0,1,5.07,1.66,3.71,3.71,0,0,1-1.64,5l-.07,0A3.77,3.77,0,0,1,170.26,217.94Zm19.9-9.83a3.79,3.79,0,1,1,1.75-.44l-.08,0A3.73,3.73,0,0,1,190.16,208.11Z"/><path class="cls-3" d="M50.92,276.93a3.75,3.75,0,0,1-1.67-7.11,3.75,3.75,0,1,1,3.37,6.7l0,0A3.63,3.63,0,0,1,50.92,276.93Z"/><path class="cls-3" d="M534.72,142.62a3.67,3.67,0,1,1,.21,0h-.21Z"/><path class="cls-3" d="M413.41,148.79a3.75,3.75,0,0,1-.19-7.49,3.8,3.8,0,0,1,4,3.55,3.7,3.7,0,0,1-3.5,3.93h-.29Zm24.26-1.23a3.75,3.75,0,0,1-.19-7.5,3.79,3.79,0,0,1,4,3.55,3.71,3.71,0,0,1-3.5,3.94h-.29Zm24.26-1.23a3.75,3.75,0,0,1-.19-7.5,3.8,3.8,0,0,1,4,3.55,3.72,3.72,0,0,1-3.51,3.94h-.29Zm24.26-1.24a3.75,3.75,0,0,1-.19-7.5,3.81,3.81,0,0,1,4,3.56,3.71,3.71,0,0,1-3.51,3.93h-.29Zm24.27-1.23a3.75,3.75,0,1,1,3.79-4,3.71,3.71,0,0,1-3.5,3.94h-.29Z"/><path class="cls-3" d="M389.19,150a3.75,3.75,0,0,1-.15-7.5,3.79,3.79,0,0,1,3.93,3.59A3.75,3.75,0,0,1,389.4,150h-.21Z"/><path class="cls-3" d="M232.83,365.16a3.85,3.85,0,0,1-1.57-.35l0,0a3.73,3.73,0,1,1,1.61.37Z"/><path class="cls-3" d="M212.64,355.37a3.66,3.66,0,0,1-1.59-.37l-.08,0a3.71,3.71,0,1,1,1.67.4Zm-20.21-9.8a3.63,3.63,0,0,1-1.59-.37l-.08,0A3.75,3.75,0,1,1,194,338.4a3.76,3.76,0,0,1-1.56,7.17Zm-20.21-9.81a3.66,3.66,0,0,1-1.6-.36l-.08,0a3.75,3.75,0,0,1,3.24-6.77,3.79,3.79,0,0,1,1.8,5A3.72,3.72,0,0,1,172.22,335.76ZM152,326a3.67,3.67,0,0,1-1.63-.38l-.08,0A3.71,3.71,0,1,1,152,326Zm-20.21-9.8a3.67,3.67,0,0,1-1.63-.38l-.08,0a3.75,3.75,0,0,1,3.3-6.74,3.8,3.8,0,0,1,1.76,5A3.74,3.74,0,0,1,131.79,316.16Zm-20.22-9.8A3.66,3.66,0,0,1,110,306l-.08,0a3.69,3.69,0,1,1,1.67.41Zm-20.21-9.81a3.66,3.66,0,0,1-1.6-.36l-.08,0a3.75,3.75,0,0,1,3.24-6.77,3.8,3.8,0,0,1,1.81,5A3.74,3.74,0,0,1,91.36,296.55Zm-20.22-9.8a3.79,3.79,0,0,1-1.59-.36l-.08,0a3.71,3.71,0,1,1,1.67.4Z"/><path class="cls-3" d="M50.94,277a3.69,3.69,0,0,1-1.57-.35l0,0a3.72,3.72,0,1,1,1.61.37Z"/><path class="cls-3" d="M368.18,542.12a3.67,3.67,0,0,1-2.95-1.47l0,0a3.75,3.75,0,1,1,5.27.72A3.79,3.79,0,0,1,368.18,542.12Z"/><path class="cls-3" d="M353.15,522.48a3.67,3.67,0,0,1-2.93-1.44l-.06-.08a3.75,3.75,0,1,1,6-4.56,3.77,3.77,0,0,1-3,6.08Zm-15-19.66a3.65,3.65,0,0,1-2.93-1.45l-.06-.08a3.75,3.75,0,0,1,6-4.56,3.77,3.77,0,0,1-3,6.09Zm-15.05-19.67a3.67,3.67,0,0,1-2.92-1.44l-.06-.08a3.75,3.75,0,1,1,6-4.56,3.76,3.76,0,0,1-3,6.08Zm-15-19.66A3.65,3.65,0,0,1,305.1,462L305,462a3.75,3.75,0,0,1,6-4.56,3.77,3.77,0,0,1-3,6.08Zm-15-19.66a3.65,3.65,0,0,1-2.91-1.44l-.06-.08a3.75,3.75,0,1,1,5.94-4.58,3.77,3.77,0,0,1-3,6.1Zm-15-19.67a3.67,3.67,0,0,1-2.91-1.43l-.06-.08a3.75,3.75,0,1,1,5.93-4.58,3.76,3.76,0,0,1-3,6.09Zm-15-19.66a3.68,3.68,0,0,1-2.92-1.45l-.06-.08a3.75,3.75,0,1,1,5.95-4.56,3.77,3.77,0,0,1-3,6.09Zm-15-19.67a3.65,3.65,0,0,1-2.92-1.44l-.06-.08a3.72,3.72,0,1,1,3,1.52Z"/><path class="cls-3" d="M232.85,365.18a3.72,3.72,0,0,1-3-1.49l0,0a3.74,3.74,0,1,1,3,1.52Z"/><path class="cls-3" d="M368.21,542.1a3.73,3.73,0,0,1-2.82-6.19l0,0a3.75,3.75,0,1,1,2.79,6.23Z"/><path class="cls-3" d="M383.79,524.53a3.73,3.73,0,0,1-2.81-6.19l.06-.07a3.75,3.75,0,1,1,5.61,5A3.83,3.83,0,0,1,383.79,524.53Zm15.61-17.59a3.73,3.73,0,0,1-2.81-6.19l.06-.07a3.75,3.75,0,1,1,5.61,5A3.85,3.85,0,0,1,399.4,506.94ZM415,489.35a3.73,3.73,0,0,1-2.8-6.21l.06-.07a3.75,3.75,0,0,1,5.58,5A3.84,3.84,0,0,1,415,489.35Zm15.6-17.58a3.74,3.74,0,0,1-2.82-6.18l.06-.07a3.75,3.75,0,1,1,5.63,5A3.83,3.83,0,0,1,430.61,471.77Zm15.61-17.59a3.73,3.73,0,0,1-2.81-6.19l.06-.07a3.75,3.75,0,1,1,5.61,5A3.83,3.83,0,0,1,446.22,454.18Zm15.61-17.59A3.74,3.74,0,0,1,459,430.4l.06-.07a3.75,3.75,0,0,1,5.62,5A3.81,3.81,0,0,1,461.83,436.59ZM477.43,419a3.74,3.74,0,0,1-2.81-6.19l.06-.07a3.75,3.75,0,1,1,5.61,5A3.83,3.83,0,0,1,477.43,419ZM493,401.42a3.74,3.74,0,0,1-2.8-6.2l.06-.07a3.75,3.75,0,1,1,5.59,5A3.81,3.81,0,0,1,493,401.42Zm15.61-17.59a3.74,3.74,0,0,1-2.83-6.18l.07-.07a3.75,3.75,0,0,1,5.63,5A3.83,3.83,0,0,1,508.65,383.83Z"/><path class="cls-3" d="M524.25,366.27a3.73,3.73,0,0,1-2.79-6.23l0,0a3.75,3.75,0,1,1,2.76,6.27Z"/><path class="cls-3" d="M532,373.05a3.72,3.72,0,0,1-2.55-1,3.77,3.77,0,0,1-.22-5.32,3.72,3.72,0,0,1,5.28-.21l0,0a3.75,3.75,0,0,1-2.55,6.5Z"/><path class="cls-3" d="M658,491.13a3.79,3.79,0,0,1-2.77-6.35,3.7,3.7,0,0,1,5.26-.21l.07.07a3.75,3.75,0,0,1-2.56,6.49Zm-18-16.87a3.72,3.72,0,0,1-2.56-1,3.78,3.78,0,0,1-.21-5.33,3.72,3.72,0,0,1,5.27-.21l.07.07a3.75,3.75,0,0,1-2.57,6.49Zm-18-16.87a3.79,3.79,0,0,1-2.77-6.35,3.7,3.7,0,0,1,5.26-.2l.07.06a3.75,3.75,0,0,1-2.56,6.49Zm-18-16.87a3.71,3.71,0,0,1-2.56-1,3.79,3.79,0,0,1-.21-5.34,3.71,3.71,0,0,1,5.27-.2l.07.06a3.75,3.75,0,0,1-2.57,6.49Zm-18-16.87a3.73,3.73,0,0,1-2.56-1,3.81,3.81,0,0,1-.21-5.34,3.71,3.71,0,0,1,5.27-.2l.07.07a3.75,3.75,0,0,1-2.57,6.48Zm-18-16.86a3.79,3.79,0,0,1-2.77-6.36,3.7,3.7,0,0,1,5.26-.2l.08.07a3.75,3.75,0,0,1-2.57,6.49Zm-18-16.87a3.72,3.72,0,0,1-2.56-1,3.79,3.79,0,0,1-.21-5.33,3.72,3.72,0,0,1,5.27-.21l.07.07a3.75,3.75,0,0,1-2.57,6.49Z"/><path class="cls-3" d="M676,508a3.72,3.72,0,0,1-2.55-1,3.77,3.77,0,0,1-.22-5.32,3.72,3.72,0,0,1,5.28-.21l0,0A3.75,3.75,0,0,1,676,508Z"/><path class="cls-3" d="M528.92,142.4a3.76,3.76,0,1,1,2.41-6.63l0,0a3.76,3.76,0,0,1-2.45,6.6Z"/><path class="cls-3" d="M668.53,261.52a3.72,3.72,0,0,1-2.42-.89,3.78,3.78,0,0,1-.46-5.32,3.71,3.71,0,0,1,5.25-.45l.07.06a3.75,3.75,0,0,1-2.44,6.6Zm-17.45-14.89a3.78,3.78,0,0,1-2.88-6.22,3.73,3.73,0,0,1,5.26-.44l.07.06a3.75,3.75,0,0,1-2.45,6.6Zm-17.45-14.89a3.74,3.74,0,0,1-2.43-.89,3.79,3.79,0,0,1-.46-5.32,3.7,3.7,0,0,1,5.25-.45l.07,0a3.75,3.75,0,0,1-2.43,6.61Zm-17.45-14.89a3.78,3.78,0,0,1-2.88-6.22,3.72,3.72,0,0,1,5.25-.44l.07.06a3.75,3.75,0,0,1-2.44,6.6ZM598.73,202a3.72,3.72,0,0,1-2.43-.89,3.79,3.79,0,0,1-.46-5.32,3.71,3.71,0,0,1,5.25-.46l.07.06a3.75,3.75,0,0,1-2.43,6.61Zm-17.46-14.89a3.7,3.7,0,0,1-2.43-.9,3.79,3.79,0,0,1-.46-5.31,3.72,3.72,0,0,1,5.26-.46l.07.06a3.75,3.75,0,0,1-2.44,6.61Zm-17.45-14.89a3.79,3.79,0,0,1-2.89-6.21,3.71,3.71,0,0,1,5.25-.46l.07.06a3.75,3.75,0,0,1-2.43,6.61Zm-17.45-14.89a3.79,3.79,0,0,1-2.89-6.21,3.71,3.71,0,0,1,5.25-.46l.07.06a3.75,3.75,0,0,1-2.43,6.61Z"/><path class="cls-3" d="M686,276.38a3.73,3.73,0,0,1-2.44-.9,3.77,3.77,0,0,1-.41-5.31,3.73,3.73,0,0,1,5.27-.41l0,0a3.75,3.75,0,0,1-2.45,6.59Z"/><path class="cls-3" d="M686,276.43h-.29a3.76,3.76,0,1,1,4-3.51v0A3.74,3.74,0,0,1,686,276.43Z"/><path class="cls-3" d="M670.09,478.76h-.3a3.75,3.75,0,0,1-3.45-4,3.79,3.79,0,0,1,4-3.5,3.71,3.71,0,0,1,3.46,4v.09A3.74,3.74,0,0,1,670.09,478.76Zm1.76-22.48h-.29a3.77,3.77,0,1,1,4-3.54v.09A3.76,3.76,0,0,1,671.85,456.28Zm1.76-22.48h-.31a3.77,3.77,0,0,1,.62-7.52,3.7,3.7,0,0,1,3.43,4v.09A3.76,3.76,0,0,1,673.61,433.8Zm1.77-22.48h-.3a3.77,3.77,0,0,1,.59-7.52,3.71,3.71,0,0,1,3.45,4v.09A3.74,3.74,0,0,1,675.38,411.32Zm1.76-22.48h-.3a3.78,3.78,0,0,1,.59-7.53,3.71,3.71,0,0,1,3.45,4v.09A3.76,3.76,0,0,1,677.14,388.84Zm1.76-22.48h-.29a3.78,3.78,0,0,1,.58-7.53,3.72,3.72,0,0,1,3.46,4v.09A3.76,3.76,0,0,1,678.9,366.36Zm1.77-22.49h-.3a3.74,3.74,0,0,1-3.45-4,3.78,3.78,0,0,1,4-3.5,3.71,3.71,0,0,1,3.46,4v.09A3.74,3.74,0,0,1,680.67,343.87Zm1.76-22.48h-.31a3.75,3.75,0,0,1-3.43-4.05,3.79,3.79,0,0,1,4-3.47,3.71,3.71,0,0,1,3.43,4V318A3.74,3.74,0,0,1,682.43,321.39Zm1.76-22.48h-.29a3.77,3.77,0,0,1,.58-7.52,3.71,3.71,0,0,1,3.46,4v.09A3.75,3.75,0,0,1,684.19,298.91Z"/><path class="cls-3" d="M668.33,501.2H668a3.76,3.76,0,1,1,4-3.5v0A3.74,3.74,0,0,1,668.33,501.2Z"/><circle class="cls-4" cx="233.27" cy="361.64" r="50.9"/><path class="cls-5" d="M248.89,330.66l-1.14,1.19-20.67,41,.23.63L252,371.81Z"/><path class="cls-6" d="M248.89,330.66l-34.94,22,13.36,20.84Z"/><path class="cls-7" d="M225.49,377.06l-.38.17-7.36,14.6-.11.8,32.54-17.21Z"/><path class="cls-6" d="M217.64,392.63l7.85-15.57-13.36-20.83Z"/><path class="cls-8" d="M227.31,373.46,252,371.81l-14.66-18.24Z"/><path class="cls-9" d="M214,352.62l13.36,20.84,10-19.89Z"/><path class="cls-10" d="M717.54,481.24A50.9,50.9,0,1,1,654.8,446,50.68,50.68,0,0,1,717.54,481.24Z"/><path class="cls-11" d="M718.47,504.85A50.92,50.92,0,0,1,631,529.35Z"/><path class="cls-12" d="M679.66,538.74l-1-3.7-7.32,2.05-.83-3,6.26-1.76-1-3.7-6.26,1.76-.79-2.83,7.33-2.05-1-3.7-11.48,3.22L668.18,542Z"/><path class="cls-12" d="M693.37,529.12l-4.22,1.18a2.19,2.19,0,0,1-1.65,2.41,2.1,2.1,0,0,1-1.84-.26c-.52-.39-.95-.91-1.81-4s-.77-3.75-.53-4.35a2.1,2.1,0,0,1,1.44-1.17,2.16,2.16,0,0,1,2.66,1.19l4.22-1.18a6.35,6.35,0,0,0-7.94-3.71,6.5,6.5,0,0,0-4.16,3.22c-1.29,2.27-.55,4.62.16,7.16s1.3,4.93,3.58,6.21a6.53,6.53,0,0,0,5.23.58A6.33,6.33,0,0,0,693.37,529.12Z"/><path class="cls-13" d="M667.46,471.27c-2.15-7.69-7.69-13.27-11.09-14.64,0,0-.25-.07-.15.24h0c3.93,14.92-2.41,21-5,27.6-6,15.17,6.69,26.42,16.36,26.45,5.41,0-1.86-2.19-5-10.27C658.84,490.9,669.79,479.58,667.46,471.27Z"/><path class="cls-14" d="M673.79,475a.15.15,0,0,0-.2.09c.36,1.92-.52,6.48-2,10.86-5.13,14.87,1.46,19.5,5.12,22,2.13,1.43,0,0,3.47-3a17.89,17.89,0,0,0,4.91-15.72A19.64,19.64,0,0,0,673.79,475Z"/><circle class="cls-15" cx="528.78" cy="139.81" r="50.9"/><path class="cls-12" d="M544.93,116.4a10.85,10.85,0,0,0-11.61,9.67l-1,11.8c-1.07-.09-2.16,0-3.38-.13a23.26,23.26,0,0,0-3.39-.12l1-12.11a10.68,10.68,0,0,0-21.29-1.77l-2.35,28.19a10.68,10.68,0,0,0,21.29,1.77l1-11.8c1.07.09,2.15,0,3.38.13a24.69,24.69,0,0,0,3.38.13l-1,12a10.68,10.68,0,0,0,21.29,1.77l2.34-28A10.63,10.63,0,0,0,544.93,116.4Zm-28.4,1.95a6.23,6.23,0,0,1,5.76,6.81l-1,12.4a38.05,38.05,0,0,0-9.26,1.86,16.63,16.63,0,0,0-3.7,1.85l1.43-17.16A6.33,6.33,0,0,1,516.53,118.35Zm3.41,35a6.3,6.3,0,0,1-12.56-1l.23-2.76c.2-2.45,2.4-4.74,5.89-5.83a29.12,29.12,0,0,1,7.53-1.54Zm21.23,8.1a6.23,6.23,0,0,1-5.75-6.81l1-12.41a38.22,38.22,0,0,0,9.26-1.85,16.85,16.85,0,0,0,3.7-1.85L548,155.68A6.33,6.33,0,0,1,541.17,161.44Zm3-25.2a29.62,29.62,0,0,1-7.53,1.53l.94-11.34a6.3,6.3,0,1,1,12.56,1l-.23,2.75C549.88,132.85,547.7,135,544.2,136.24Z"/><circle class="cls-3" cx="687.33" cy="274.77" r="50.9"/><path id="Layer" class="cls-16" d="M717.11,273.13l-1.44-2.94h0l-7.86-16.13h0l-.25-.57-3.34-.28L689.29,275l11.3,23.81,3.35.28.09-.12,12.45-17.75-6.72-.56-6.66,9.83-7.08-15,9.29-13.61,5,10.64Z"/><path id="Layer-2" data-name="Layer" class="cls-16" d="M666.61,265.18l7-9.89-1.77-3.47h0l-1.23-2.45-12,17.54h0l-.33.48,1.42,3.06L686,272.63l15.12-21.57-1.57-3.32-18.38-1.49-.29,0-2.92-.29,1.3,3.05h0l1.3,3,12,1-9.45,13.55Z"/><path id="Layer-3" data-name="Layer" class="cls-16" d="M680.59,254.24a4.78,4.78,0,0,0-1.48.12,8,8,0,0,0-1.64.58A5.24,5.24,0,0,0,674.6,258a1.62,1.62,0,0,0,.22,1.37h0c0,.09.12.13.15.22s.08.05.12.1l.08.09a2.43,2.43,0,0,1,.2.14h0a4.44,4.44,0,0,0,3.61,0l0,0c.13,0,.26-.11.39-.14a1.46,1.46,0,0,0,.35-.18l.4-.22c.13-.07.22-.15.35-.22l.09,0,.27-.18.09-.08c.08,0,.13-.12.18-.15a.79.79,0,0,0,.14-.16c0-.08.13-.12.18-.2l.09-.07c.05-.08.14-.12.19-.2l.09-.07a2.43,2.43,0,0,1,.14-.2v0l0-.08a1.16,1.16,0,0,0,.19-.28c0-.08.1-.2.15-.28l0,0s.05-.08.05-.08h0s0,0,0-.08.06-.12.06-.21,0-.08.06-.12v-.08l0-.17v-.08l0-.21v-.29c0-.09,0-.13-.06-.22s-.07-.13-.11-.22h0A2.08,2.08,0,0,0,680.59,254.24Z"/><path id="Layer-4" data-name="Layer" class="cls-16" d="M683.39,257.54a.47.47,0,0,1-.1.2h0s0,0,0,.08h0a1.12,1.12,0,0,1-.2.32h0a7.12,7.12,0,0,1-2.32,2.2l-.4.22a1.92,1.92,0,0,1-.39.18h0s-.08,0-.13.08a2.26,2.26,0,0,0-.22.11h0s-.09,0-.13,0a.59.59,0,0,1-.26.07l-.08,0h0c-.05,0-.09,0-.13,0l-.26.06-.09,0h0c-.09,0-.17,0-.26.07s-.08,0-.17,0h0c-.08,0-.17,0-.21,0s-.13,0-.17,0h0a.13.13,0,0,0-.13,0h-.13c-.12,0-.29,0-.42,0h0l-.38,0h-.12a.57.57,0,0,1-.25-.06.16.16,0,0,1-.12-.05c-.08,0-.16-.06-.25-.07s-.08,0-.12-.05l2,3.91,4.93.37,2.92-4.3-2-3.95a.21.21,0,0,1-.05.12v.09a.68.68,0,0,0-.06.16A.16.16,0,0,1,683.39,257.54Z"/><path id="Layer-5" data-name="Layer" class="cls-16" d="M708.44,273.29a4.32,4.32,0,0,1,.42,1.42,7.62,7.62,0,0,1,.07,1.73,5.14,5.14,0,0,1-1.79,3.8,1.67,1.67,0,0,1-1.37.31h0c-.08,0-.16-.06-.25-.07s-.08,0-.12-.05-.08-.05-.12-.05a1.33,1.33,0,0,1-.2-.14h0a4.46,4.46,0,0,1-1.36-3.35v0c0-.13,0-.26,0-.43l0-.37,0-.46a1.16,1.16,0,0,1,.07-.37v-.09c0-.08.06-.2.06-.29v-.12c0-.08.06-.16.07-.25s0-.12.06-.2a2.6,2.6,0,0,1,.1-.25s.05-.08.05-.12.06-.16.11-.24l0-.12a.45.45,0,0,0,.1-.21v0l0-.08a1.69,1.69,0,0,1,.19-.28c0-.08.14-.15.19-.23l.05,0,.09-.08h0s0,0,.05-.08l.13-.11.09-.08.09-.07.14-.12.08,0s.14-.08.18-.12,0,0,.09,0a.19.19,0,0,0,.09,0s0,0,0,0h0c.09,0,.13,0,.22,0l.25,0h0A2.22,2.22,0,0,1,708.44,273.29Z"/><path id="Layer-6" data-name="Layer" class="cls-16" d="M704.3,271.93a2,2,0,0,1-.14.16h0s0,0,0,.08h0c-.09.08-.14.2-.23.27h0a6.65,6.65,0,0,0-1.17,3l0,.45,0,.42v0h0v.17a.47.47,0,0,0,0,.26v.16a2.28,2.28,0,0,0,0,.26v.12a.13.13,0,0,0,0,.13,2.11,2.11,0,0,0,0,.25l0,.09v0a.62.62,0,0,0,.06.26s0,.09,0,.13h0v0a1.87,1.87,0,0,0,.07.22s0,.08.07.17v0s0,.09,0,.13a.16.16,0,0,1,0,.09,1.36,1.36,0,0,0,.18.39l0,.05a2.1,2.1,0,0,0,.19.31s0,0,0,.08l0,0c0,.08.12.13.15.22s0,.09.08.09a1.23,1.23,0,0,1,.15.22c0,.05.08.05.07.09l-4.38-.36-2.2-4.43,2.88-4.3,4.39.36-.09.08,0,0-.18.15Z"/><path id="Layer-7" data-name="Layer" class="cls-16" d="M677.29,293.86a5,5,0,0,1-1.44-.37,7.57,7.57,0,0,1-1.52-.85,5.21,5.21,0,0,1-2.32-3.51,1.6,1.6,0,0,1,.45-1.31h0c0-.08.13-.11.18-.19s.09,0,.13-.08l.09-.07c.09,0,.14-.08.22-.11h0a4.44,4.44,0,0,1,3.57.59l0,.05c.12.05.24.14.36.19a2.22,2.22,0,0,1,.32.24l.35.28.31.28.08.05c.08.09.16.14.24.23l.07.09a.65.65,0,0,1,.16.18.7.7,0,0,1,.11.18c0,.08.11.13.15.22l.08.09c0,.09.11.14.14.22l.08.09c0,.09.07.14.11.22v0l0,.09a.85.85,0,0,1,.14.31,2.64,2.64,0,0,1,.1.3l0,.05a.14.14,0,0,0,0,.08h0s0,0,0,.09,0,.13,0,.21,0,.09,0,.13v.33l0,.21v.3a.47.47,0,0,1-.1.2c0,.08-.1.12-.15.2h0A2,2,0,0,1,677.29,293.86Z"/><path id="Layer-8" data-name="Layer" class="cls-16" d="M680.6,291.06a.58.58,0,0,0-.07-.21h0s0,0,0-.09h0a1.25,1.25,0,0,0-.13-.35h0a7.14,7.14,0,0,0-1.94-2.55l-.35-.29a2.5,2.5,0,0,0-.36-.24h0c0-.05-.08-.05-.12-.09l-.2-.15h0s-.08,0-.12,0a.64.64,0,0,0-.24-.11l-.08-.05h0s-.08-.05-.12-.05-.16-.06-.24-.11l-.08,0h0c-.08-.05-.17-.05-.25-.1a.68.68,0,0,0-.16-.06h0c-.09,0-.17-.06-.21-.06a.22.22,0,0,1-.16-.06h0a.15.15,0,0,1-.12-.05h-.13c-.12,0-.29-.07-.41-.08h-.05l-.37,0h-.13a.44.44,0,0,0-.25,0,.13.13,0,0,0-.13,0c-.08,0-.17,0-.25,0l-.13,0,2.6-3.52,4.93.45,2.17,4.72-2.61,3.57s0-.09,0-.13v-.09s0-.08,0-.17A.19.19,0,0,0,680.6,291.06Z"/><path id="Layer-9" data-name="Layer" class="cls-16" d="M688.88,297.05l-12-1-2.12,3.31-1.45,2.28,3.21.22v0l18.37,1.57,2.1-3-11.35-23.77-26.26-2.23-1.91,2.79.29.57h0L666.61,297l3.93-5.34-5.23-10.87,16.49,1.38Z"/><circle class="cls-17" cx="524.28" cy="362.51" r="50.9"/><path class="cls-12" d="M539.21,354.41a3.57,3.57,0,0,0-3.49-.3l-8.39,4-5.69,2.58-8.39,4a3.59,3.59,0,0,1-3.49-.29l-6.06-4.16a3.49,3.49,0,0,1-1.5-3.07l.6-7.17a3.27,3.27,0,0,1,2-2.78l6.55-3a3.59,3.59,0,0,1,3.49.29l6,4.05a3.48,3.48,0,0,1,1.51,3.07l-.39,4.65,5.7-2.68.39-4.64a3.27,3.27,0,0,0-1.51-3.07l-11-7.63a3.6,3.6,0,0,0-3.49-.29l-12.35,5.68a3.27,3.27,0,0,0-2,2.78l-1.12,13.42a3.27,3.27,0,0,0,1.5,3.07l11.25,7.65a3.6,3.6,0,0,0,3.49.29l8.38-3.88,5.7-2.67,8.38-3.88a3.59,3.59,0,0,1,3.49.29l6,4.06a3.49,3.49,0,0,1,1.5,3.07l-.6,7.16a3.29,3.29,0,0,1-2,2.79L537,380.85a3.59,3.59,0,0,1-3.49-.29l-6-4.06a3.45,3.45,0,0,1-1.5-3.07l.38-4.64-5.7,2.68-.38,4.64a3.27,3.27,0,0,0,1.5,3.07l11.24,7.64a3.55,3.55,0,0,0,3.49.29L549,381.44a3.48,3.48,0,0,0,2-2.79l1.12-13.42a3.28,3.28,0,0,0-1.51-3.07Z"/><path class="cls-18" d="M213.63,200.15a17.94,17.94,0,1,1-16.39-19.38A17.95,17.95,0,0,1,213.63,200.15Zm174.24-71.76a17.94,17.94,0,1,0,16.39,19.37A17.95,17.95,0,0,0,387.87,128.39Z"/><path class="cls-19" d="M370.7,385.77l-5.5,27.72a2.84,2.84,0,0,0,3.59,3.27l40.18-12a2.83,2.83,0,0,0,.25-5.34l-36.56-14.69A1.45,1.45,0,0,0,370.7,385.77Z"/><circle cx="368.24" cy="538.05" r="50.9"/><path class="cls-20" d="M358.43,512.1h-15a1.15,1.15,0,0,0-1.15,1.15v15a1.15,1.15,0,0,0,1.15,1.15h15a1.16,1.16,0,0,0,1.16-1.15v-15A1.16,1.16,0,0,0,358.43,512.1Zm17.31,17.3h-15a1.16,1.16,0,0,0-1.16,1.15v15a1.16,1.16,0,0,0,1.16,1.15h15a1.15,1.15,0,0,0,1.15-1.15v-15A1.15,1.15,0,0,0,375.74,529.4Zm2.3-17.3h15a1.15,1.15,0,0,1,1.15,1.15v15A1.15,1.15,0,0,1,393,529.4H378a1.15,1.15,0,0,1-1.15-1.15v-15A1.15,1.15,0,0,1,378,512.1Zm-19.61,34.6h-15a1.15,1.15,0,0,0-1.15,1.15v15a1.15,1.15,0,0,0,1.15,1.15h15a1.16,1.16,0,0,0,1.16-1.15v-15A1.16,1.16,0,0,0,358.43,546.7Zm19.61,0h15a1.15,1.15,0,0,1,1.15,1.15v15A1.15,1.15,0,0,1,393,564H378a1.15,1.15,0,0,1-1.15-1.15v-15A1.15,1.15,0,0,1,378,546.7Z"/><circle class="cls-21" cx="50.91" cy="273.18" r="50.9"/><path class="cls-22" d="M37,247l19.44-7.24,15.9,13.33-7.16,2.68-10.05-8.41-12.29,4.56Zm33.1,19.06-5.84-4.92L52,265.71,41.93,257.3,34.78,260l-1.31,7.6L43.53,276,41.3,289l5.84,4.92,7.15-2.68,2.23-13,12.29-4.56Zm-3.54,20.57,1.31-7.6-7.15,2.68-1.31,7.6Zm4.15,3.48-12.29,4.56-1.31,7.6L76.57,295l3.54-20.57L73,277.15Zm-1.38-30.86,5.85,4.92-1.31,7.59L81,269.09l1.31-7.6-5.84-4.91Zm-29,35.14L39.05,302l5.84,4.92,7.16-2.68,1.3-7.6-7.15,2.68Zm-9.12-13.85,5.84,4.92,1.31-7.6L32.55,273Zm15.83-25.13,5.84,4.92,7.16-2.68-5.85-4.92ZM30.63,256.5l7.15-2.68-5.84-4.92-7.15,2.68-1.31,7.6,5.84,4.92Zm-2.23,13-5.84-4.91L19,285.13l15.9,13.32,1.31-7.6-10-8.4Z"/></g></g></svg>