<?xml version="1.0" standalone="no"?><!DOCTYPE svg PUBLIC "-//W3C//DTD SVG 1.1//EN" "http://www.w3.org/Graphics/SVG/1.1/DTD/svg11.dtd"><svg t="1631521914619" class="icon" viewBox="0 0 1024 1024" version="1.1" xmlns="http://www.w3.org/2000/svg" p-id="2925" xmlns:xlink="http://www.w3.org/1999/xlink" width="30" height="30"><defs><style type="text/css"></style></defs><path d="M977.923918 300.274086A511.828793 511.828793 0 1 0 1023.732595 512.171207a511.828793 511.828793 0 0 0-45.808677-211.897121zM665.452439 512.171207a1087.380271 1087.380271 0 0 1-5.886031 112.090505 1126.023345 1126.023345 0 0 0-295.325214 0A1087.380271 1087.380271 0 0 1 358.355163 512.171207c0-30.453813 1.279572-59.37214 3.582802-86.754981A1123.464201 1123.464201 0 0 0 511.903801 435.396888a1123.464201 1123.464201 0 0 0 149.965837-9.980662c3.582802 27.38284 3.582802 56.301167 3.582801 86.754981z m185.793852 272.548832c-5.886031 7.421518-12.027977 14.331206-18.169922 21.496809l-5.886031 5.886032-13.819377 14.075291-7.677432 7.165604c-4.350545 4.09463-8.701089 7.933346-13.307549 11.516147l-8.445175 7.165603-13.563463 10.492491-8.957004 6.39786-14.587121 9.724747-8.701089 5.630116-17.402179 9.980662-6.909689 3.582801c-8.189261 4.350545-16.634436 8.445175-25.591439 12.283891l-5.630117 2.30323-19.705409 9.212918-9.468832 3.326888-6.141946 2.047315a639.785992 639.785992 0 0 0 76.774319-211.897121 598.327859 598.327859 0 0 1 143.056148 51.18288c-4.09463 5.630117-8.445175 11.516148-12.79572 16.89035zM511.903801 947.225681c-38.898988 0-105.436731-85.731323-136.402373-246.701478a1014.444668 1014.444668 0 0 1 272.804747 0C617.340533 861.494358 550.80279 947.225681 511.903801 947.225681z m-150.989494-25.59144l-20.473151-8.18926-5.374203-2.047316c-8.445175-3.838716-16.89035-7.933346-25.591439-12.283891l-6.39786-3.326887-17.914008-10.236576-8.445175-5.374202-15.09895-9.980661-8.445175-6.39786c-4.606459-3.326887-9.468833-6.909689-14.075292-10.748405L230.397965 844.859922l-13.563463-12.027976-7.165603-6.653775c-5.118288-4.862374-9.980661-9.980661-14.587121-14.843035l-5.118288-5.374202c-6.39786-6.909689-12.539805-14.331206-18.681751-21.752724l-1.7914-2.303229c-4.606459-5.886031-8.957004-11.772062-13.307549-17.914008a598.327859 598.327859 0 0 1 143.056148-51.182879 639.785992 639.785992 0 0 0 76.774319 211.89712l-6.141946-2.047315zM511.903801 358.622569a1039.268365 1039.268365 0 0 1-140.752918-9.724747C399.813296 172.060974 470.957498 77.116732 511.903801 77.116732s112.090506 94.944241 140.752918 271.78109A1039.268365 1039.268365 0 0 1 511.903801 358.622569zM150.040844 270.843931c4.09463-5.886031 7.933346-11.772062 12.283891-17.402179l6.653775-8.70109c3.838716-4.862374 7.677432-9.724747 11.772062-14.331206s5.118288-5.886031 7.677432-8.701089l12.027977-13.051635 8.445175-8.18926 13.051634-12.283891c2.815058-2.559144 5.630117-5.118288 8.701089-7.421518s9.468833-7.933346 14.331207-11.772062l8.445175-6.39786q8.957004-6.39786 17.658093-12.283891l6.141946-4.350545c8.189261-5.118288 16.634436-10.236576 25.591439-14.843035L307.172284 128.299612l20.98498-10.49249 9.212919-4.094631 17.658093-7.421517 11.004319-3.582802 10.236576-3.582801a670.495719 670.495719 0 0 0-80.35712 236.208988 544.329922 544.329922 0 0 1-151.245409-56.301168v-1.279572zM647.538431 99.125371l10.236576 3.582801 10.748405 3.838716 17.658093 7.421518 9.212919 4.09463q11.004319 5.118288 21.496809 10.748405l4.350545 2.303229c8.701089 4.606459 17.146265 9.724747 25.591439 14.843035l5.630117 3.838716 18.169922 12.79572 8.189261 6.141945 14.843035 12.027977 8.189261 7.165603 13.563463 12.539806 7.933346 7.933346 12.539805 13.563463c2.559144 2.815058 5.118288 5.374202 7.421518 8.189261s8.189261 9.980661 12.027977 15.098949l6.397859 8.189261c4.350545 5.630117 8.445175 11.772062 12.539806 17.914007a56.301167 56.301167 0 0 1 4.350545 6.39786v1.279572a544.329922 544.329922 0 0 1-151.245409 56.301168 670.495719 670.495719 0 0 0-79.845292-236.208988zM76.849327 512.171207a430.70393 430.70393 0 0 1 33.012957-164.808872 639.785992 639.785992 0 0 0 176.325019 64.490428A1067.674863 1067.674863 0 0 0 281.580844 512.171207a1164.410505 1164.410505 0 0 0 7.165603 125.398054 652.325797 652.325797 0 0 0-169.927159 60.139883A427.888871 427.888871 0 0 1 76.849327 512.171207z m658.211828 125.398054A1164.410505 1164.410505 0 0 0 742.226758 512.171207c0-34.292529-1.535486-67.817315-4.606459-100.318444a639.785992 639.785992 0 0 0 176.325019-64.490428 429.680272 429.680272 0 0 1-8.957004 350.346809 652.325797 652.325797 0 0 0-169.927159-60.139883z" fill="#475472" p-id="2926"></path></svg>
