<svg xmlns="http://www.w3.org/2000/svg" viewBox="0 0 25 25"><defs><style>.cls-1{fill:#e24a58;}.cls-2{fill:#fff;}</style></defs><title>网络断开</title><g id="图层_2" data-name="图层 2"><g id="图层_1-2" data-name="图层 1"><circle class="cls-1" cx="12.5" cy="12.5" r="12.5"/><path class="cls-2" d="M8.79,14.46A.65.65,0,0,0,9,14a.67.67,0,0,0-.67-.67H6.72a.67.67,0,1,0,0,1.33h1.6A.67.67,0,0,0,8.79,14.46Z"/><path class="cls-2" d="M14,9a.67.67,0,0,0,.67-.67V6.71a.67.67,0,0,0-1.34,0v1.6A.67.67,0,0,0,14,9Z"/><path class="cls-2" d="M16,11a.67.67,0,0,0,.67.67h1.6a.67.67,0,1,0,0-1.34h-1.6A.67.67,0,0,0,16,11Z"/><path class="cls-2" d="M15.34,10.32h0a.7.7,0,0,0,.47-.19L17.2,8.74a.66.66,0,0,0,.19-.65.67.67,0,0,0-1.13-.3L14.87,9.18a.66.66,0,0,0-.14.73A.65.65,0,0,0,15.34,10.32Z"/><path class="cls-2" d="M9.85,14.67a.68.68,0,0,0-.66.19L7.81,16.25a.63.63,0,0,0-.19.65.65.65,0,0,0,.48.48.44.44,0,0,0,.16,0,.67.67,0,0,0,.49-.21l1.38-1.38a.67.67,0,0,0-.28-1.14Z"/><path class="cls-2" d="M11,16a.67.67,0,0,0-.66.67v1.6a.67.67,0,1,0,1.33,0v-1.6A.67.67,0,0,0,11,16Z"/><path class="cls-2" d="M19.37,14.4l-2.29-2.29a.68.68,0,0,0-.65-.17.66.66,0,0,0-.47.47.7.7,0,0,0,.17.65l2.29,2.28a.84.84,0,0,1,0,1.2l-1.87,1.87a.85.85,0,0,1-1.2,0l-2.28-2.29a.68.68,0,0,0-.65-.17.66.66,0,0,0-.47.47.68.68,0,0,0,.17.65l2.29,2.29a2.2,2.2,0,0,0,3.08,0l1.87-1.88a2.18,2.18,0,0,0,0-3.08Z"/><path class="cls-2" d="M12.88,8.86a.69.69,0,0,0,0-.95L10.59,5.62A2.18,2.18,0,0,0,9.05,5h0a2.18,2.18,0,0,0-1.54.61L5.64,7.5a2.17,2.17,0,0,0,0,3.08l2.28,2.29a.67.67,0,0,0,.95-.95L6.58,9.64A.86.86,0,0,1,6.33,9a.84.84,0,0,1,.25-.6L8.45,6.57a.87.87,0,0,1,1.2,0l2.29,2.28A.67.67,0,0,0,12.88,8.86Z"/></g></g></svg>