<?xml version="1.0" standalone="no"?><!DOCTYPE svg PUBLIC "-//W3C//DTD SVG 1.1//EN" "http://www.w3.org/Graphics/SVG/1.1/DTD/svg11.dtd"><svg t="1627266344735" class="icon" viewBox="0 0 1024 1024" version="1.1" xmlns="http://www.w3.org/2000/svg" p-id="7124" width="32" height="32" xmlns:xlink="http://www.w3.org/1999/xlink"><defs><style type="text/css">@font-face { font-family: feedback-iconfont; src: url("//at.alicdn.com/t/font_1031158_1uhr8ri0pk5.eot?#iefix") format("embedded-opentype"), url("//at.alicdn.com/t/font_1031158_1uhr8ri0pk5.woff2") format("woff2"), url("//at.alicdn.com/t/font_1031158_1uhr8ri0pk5.woff") format("woff"), url("//at.alicdn.com/t/font_1031158_1uhr8ri0pk5.ttf") format("truetype"), url("//at.alicdn.com/t/font_1031158_1uhr8ri0pk5.svg#iconfont") format("svg"); }
</style></defs><path d="M512 512m-512 0a512 512 0 1 0 1024 0 512 512 0 1 0-1024 0Z" fill="#7E87C2" p-id="7125"></path><path d="M512 772.48a36.48 36.48 0 0 1-23.68-64l213.76-184.64a36.16 36.16 0 1 1 47.36 55.04l-213.76 184.64a35.2 35.2 0 0 1-23.68 8.96z" fill="#FFFFFF" p-id="7126"></path><path d="M512 772.48a35.2 35.2 0 0 1-23.68-8.96l-213.76-184.64a36.16 36.16 0 0 1 47.36-55.04l213.76 184.64a36.48 36.48 0 0 1-23.68 64z" fill="#FFFFFF" p-id="7127"></path><path d="M512 733.76a36.48 36.48 0 0 1-36.48-36.48V288a36.48 36.48 0 0 1 72.96 0v409.28A36.48 36.48 0 0 1 512 733.76z" fill="#FFFFFF" p-id="7128"></path></svg>