<svg xmlns="http://www.w3.org/2000/svg" xmlns:xlink="http://www.w3.org/1999/xlink" viewBox="0 0 280 280"><defs><style>.cls-1{fill:none;}.cls-2{fill:#e9eff9;}.cls-3{opacity:0.5;}.cls-4{clip-path:url(#clip-path);}.cls-5{fill:#17ead9;}.cls-6{fill:#18e9d9;}.cls-7{fill:#18e8d9;}.cls-8{fill:#19e7d9;}.cls-9{fill:#1ae6da;}.cls-10{fill:#1ae5da;}.cls-11{fill:#1be4da;}.cls-12{fill:#1ce3da;}.cls-13{fill:#1ce2da;}.cls-14{fill:#1de1da;}.cls-15{fill:#1de0db;}.cls-16{fill:#1edfdb;}.cls-17{fill:#1fdedb;}.cls-18{fill:#1fdddb;}.cls-19{fill:#20dcdb;}.cls-20{fill:#21dbdb;}.cls-21{fill:#21dadb;}.cls-22{fill:#22d9dc;}.cls-23{fill:#23d8dc;}.cls-24{fill:#23d7dc;}.cls-25{fill:#24d6dc;}.cls-26{fill:#25d5dc;}.cls-27{fill:#25d4dc;}.cls-28{fill:#26d3dc;}.cls-29{fill:#27d2dd;}.cls-30{fill:#27d1dd;}.cls-31{fill:#28d0dd;}.cls-32{fill:#28cfdd;}.cls-33{fill:#29cedd;}.cls-34{fill:#2acddd;}.cls-35{fill:#2accde;}.cls-36{fill:#2bcbde;}.cls-37{fill:#2ccade;}.cls-38{fill:#2cc9de;}.cls-39{fill:#2dc8de;}.cls-40{fill:#2ec7de;}.cls-41{fill:#2ec6de;}.cls-42{fill:#489de4;}.cls-43{fill:#499ce5;}.cls-44{fill:#499be5;}.cls-45{fill:#4a9ae5;}.cls-46{fill:#4b99e5;}.cls-47{fill:#4b98e5;}.cls-48{fill:#4c97e5;}.cls-49{fill:#4d96e5;}.cls-50{fill:#4d95e6;}.cls-51{fill:#4e94e6;}.cls-52{fill:#4f93e6;}.cls-53{fill:#4f92e6;}.cls-54{fill:#5091e6;}.cls-55{fill:#5090e6;}.cls-56{fill:#518fe7;}.cls-57{fill:#528ee7;}.cls-58{fill:#528de7;}.cls-59{fill:#538ce7;}.cls-60{fill:#548be7;}.cls-61{fill:#548ae7;}.cls-62{fill:#5589e7;}.cls-63{fill:#5688e8;}.cls-64{fill:#5687e8;}.cls-65{fill:#5786e8;}.cls-66{fill:#5885e8;}.cls-67{fill:#5884e8;}.cls-68{fill:#5983e8;}.cls-69{fill:#5a82e8;}.cls-70{fill:#5a81e9;}.cls-71{fill:#5b80e9;}.cls-72{fill:#5b7fe9;}.cls-73{fill:#5c7ee9;}.cls-74{fill:#5d7de9;}.cls-75{fill:#5d7ce9;}.cls-76{fill:#5e7bea;}.cls-77{fill:#5f7aea;}.cls-78{fill:#5f79ea;}.cls-79{fill:#6078ea;}.cls-80{clip-path:url(#clip-path-2);}.cls-81{fill:#303438;}.cls-82{clip-path:url(#clip-path-3);}.cls-83{fill:#479ee4;}.cls-84{fill:#2fc5df;}.cls-85{fill:#30c4df;}.cls-86{fill:#30c3df;}.cls-87{fill:#31c2df;}.cls-88{fill:#31c1df;}.cls-89{fill:#32c0df;}.cls-90{fill:#33bfdf;}.cls-91{fill:#33bee0;}.cls-92{fill:#34bde0;}.cls-93{fill:#35bce0;}.cls-94{fill:#35bbe0;}.cls-95{fill:#36bae0;}.cls-96{fill:#37b9e0;}.cls-97{fill:#37b8e1;}.cls-98{fill:#38b7e1;}.cls-99{fill:#39b6e1;}.cls-100{fill:#39b5e1;}.cls-101{fill:#3ab4e1;}.cls-102{fill:#3bb3e1;}.cls-103{fill:#3bb2e1;}.cls-104{fill:#3cb0e2;}.cls-105{fill:#3cafe2;}.cls-106{fill:#3daee2;}.cls-107{fill:#3eade2;}.cls-108{fill:#3eace2;}.cls-109{fill:#3fabe2;}.cls-110{fill:#40aae2;}.cls-111{fill:#40a9e3;}.cls-112{fill:#41a8e3;}.cls-113{fill:#42a7e3;}.cls-114{fill:#42a6e3;}.cls-115{fill:#43a5e3;}.cls-116{fill:#44a4e3;}.cls-117{fill:#44a3e4;}.cls-118{fill:#45a2e4;}.cls-119{fill:#46a1e4;}.cls-120{fill:#46a0e4;}.cls-121{fill:#479fe4;}.cls-122{clip-path:url(#clip-path-4);}</style><clipPath id="clip-path"><path class="cls-1" d="M88.43,270.2A140.35,140.35,0,0,1,6.85,183.35,60.5,60.5,0,0,1,100.43,231,59.93,59.93,0,0,1,88.43,270.2ZM180.47,6l-9.6,33.44a39.78,39.78,0,0,0,27.29,49.24l36.48,10.46a39.6,39.6,0,0,0,36.63-7.84A140.31,140.31,0,0,0,180.47,6Z"/></clipPath><clipPath id="clip-path-2"><path class="cls-1" d="M280,140a139.9,139.9,0,1,1-8.73-48.76A140,140,0,0,1,280,140Z"/></clipPath><clipPath id="clip-path-3"><path class="cls-1" d="M186.9,131.12c-.45-36.48-15.23-72.37-37.63-92a15.64,15.64,0,0,0-20.85.25c-21.95,20.19-35.78,56.69-35.33,92.91l0,1.67c.86,24.07,4.33,32.64,9.29,47.74l1.61,4a10.47,10.47,0,0,0,9.68,6.3l54.1-.68a10.42,10.42,0,0,0,9.35-6.47l1.78-4.09a136.91,136.91,0,0,0,8-48Zm-67.69,39.93a5.21,5.21,0,1,1,5.15-5.27A5.21,5.21,0,0,1,119.21,171.05Zm20.85-.26a5.21,5.21,0,1,1,5.15-5.27A5.21,5.21,0,0,1,140.06,170.79Zm.2-59.39a20.85,20.85,0,1,1,20.59-21.1A20.86,20.86,0,0,1,140.26,111.4Zm20.65,59.13a5.21,5.21,0,1,1,5.15-5.27A5.21,5.21,0,0,1,160.91,170.53Z"/></clipPath><clipPath id="clip-path-4"><path class="cls-1" d="M139.88,80.13a10.43,10.43,0,1,0,10.54,10.29A10.43,10.43,0,0,0,139.88,80.13Z"/></clipPath></defs><title>资源 2</title><g id="图层_2" data-name="图层 2"><g id="图层_1-2" data-name="图层 1"><path class="cls-2" d="M280,140a139.9,139.9,0,1,1-8.73-48.76A140,140,0,0,1,280,140Z"/><g class="cls-3"><g class="cls-4"><polygon class="cls-5" points="271.27 93.96 270.3 94.85 188.69 5.95 271.27 5.95 271.27 93.96"/><polygon class="cls-5" points="270.3 94.85 268.6 96.41 185.56 5.95 188.69 5.95 270.3 94.85"/><polygon class="cls-6" points="268.6 96.41 266.9 97.97 182.43 5.95 185.56 5.95 268.6 96.41"/><polygon class="cls-7" points="266.9 97.97 265.2 99.53 179.3 5.95 182.43 5.95 266.9 97.97"/><polygon class="cls-8" points="265.2 99.53 263.5 101.09 176.78 6.62 177.51 5.95 179.3 5.95 265.2 99.53"/><rect class="cls-9" x="218.14" y="-9.48" width="2.31" height="128.24" transform="translate(20.8 162.68) rotate(-42.55)"/><polygon class="cls-10" points="261.8 102.65 261.53 102.9 258.9 102.9 173.38 9.74 175.08 8.18 261.8 102.65"/><polygon class="cls-11" points="255.77 102.9 171.68 11.3 173.38 9.74 258.9 102.9 255.77 102.9"/><polygon class="cls-12" points="252.64 102.9 169.98 12.86 171.68 11.3 255.77 102.9 252.64 102.9"/><polygon class="cls-13" points="249.5 102.9 168.28 14.42 169.98 12.86 252.64 102.9 249.5 102.9"/><polygon class="cls-14" points="246.37 102.9 166.58 15.98 168.28 14.42 249.5 102.9 246.37 102.9"/><polygon class="cls-15" points="243.24 102.9 164.88 17.54 166.58 15.98 246.37 102.9 243.24 102.9"/><polygon class="cls-16" points="240.11 102.9 164.8 20.86 164.8 17.62 164.88 17.54 243.24 102.9 240.11 102.9"/><polygon class="cls-17" points="236.98 102.9 164.8 24.27 164.8 20.86 240.11 102.9 236.98 102.9"/><polygon class="cls-18" points="233.84 102.9 164.8 27.69 164.8 24.27 236.98 102.9 233.84 102.9"/><polygon class="cls-19" points="230.71 102.9 164.8 31.1 164.8 27.69 233.84 102.9 230.71 102.9"/><polygon class="cls-20" points="227.58 102.9 164.8 34.51 164.8 31.1 230.71 102.9 227.58 102.9"/><polygon class="cls-21" points="224.45 102.9 164.8 37.92 164.8 34.51 227.58 102.9 224.45 102.9"/><polygon class="cls-22" points="221.32 102.9 164.8 41.33 164.8 37.92 224.45 102.9 221.32 102.9"/><polygon class="cls-23" points="218.19 102.9 164.8 44.74 164.8 41.33 221.32 102.9 218.19 102.9"/><polygon class="cls-24" points="215.05 102.9 164.8 48.16 164.8 44.74 218.19 102.9 215.05 102.9"/><polygon class="cls-25" points="211.92 102.9 164.8 51.57 164.8 48.16 215.05 102.9 211.92 102.9"/><polygon class="cls-26" points="208.79 102.9 164.8 54.98 164.8 51.57 211.92 102.9 208.79 102.9"/><polygon class="cls-27" points="205.66 102.9 164.8 58.39 164.8 54.98 208.79 102.9 205.66 102.9"/><polygon class="cls-28" points="202.53 102.9 164.8 61.8 164.8 58.39 205.66 102.9 202.53 102.9"/><polygon class="cls-29" points="199.39 102.9 164.8 65.22 164.8 61.8 202.53 102.9 199.39 102.9"/><polygon class="cls-30" points="196.26 102.9 164.8 68.63 164.8 65.22 199.39 102.9 196.26 102.9"/><polygon class="cls-31" points="193.13 102.9 164.8 72.04 164.8 68.63 196.26 102.9 193.13 102.9"/><polygon class="cls-32" points="190 102.9 164.8 75.45 164.8 72.04 193.13 102.9 190 102.9"/><polygon class="cls-33" points="186.87 102.9 164.8 78.86 164.8 75.45 190 102.9 186.87 102.9"/><polygon class="cls-34" points="183.74 102.9 164.8 82.27 164.8 78.86 186.87 102.9 183.74 102.9"/><polygon class="cls-35" points="180.6 102.9 164.8 85.69 164.8 82.27 183.74 102.9 180.6 102.9"/><polygon class="cls-36" points="177.47 102.9 164.8 89.1 164.8 85.69 180.6 102.9 177.47 102.9"/><polygon class="cls-37" points="174.34 102.9 164.8 92.51 164.8 89.1 177.47 102.9 174.34 102.9"/><polygon class="cls-38" points="171.21 102.9 164.8 95.92 164.8 92.51 174.34 102.9 171.21 102.9"/><polygon class="cls-39" points="168.08 102.9 164.8 99.33 164.8 95.92 171.21 102.9 168.08 102.9"/><polygon class="cls-40" points="164.94 102.9 164.8 102.75 164.8 99.33 168.08 102.9 164.94 102.9"/><polygon class="cls-41" points="164.8 102.75 164.94 102.9 164.8 102.9 164.8 102.75"/><polygon class="cls-42" points="101.16 173.3 99.86 171.89 101.16 171.89 101.16 173.3"/><polygon class="cls-43" points="101.16 176.71 96.73 171.89 99.86 171.89 101.16 173.3 101.16 176.71"/><polygon class="cls-44" points="101.16 180.13 93.6 171.89 96.73 171.89 101.16 176.71 101.16 180.13"/><polygon class="cls-45" points="101.16 183.54 90.47 171.89 93.6 171.89 101.16 180.13 101.16 183.54"/><polygon class="cls-46" points="101.16 186.95 87.33 171.89 90.47 171.89 101.16 183.54 101.16 186.95"/><polygon class="cls-47" points="101.16 190.36 84.2 171.89 87.33 171.89 101.16 186.95 101.16 190.36"/><polygon class="cls-48" points="101.16 193.77 81.07 171.89 84.2 171.89 101.16 190.36 101.16 193.77"/><polygon class="cls-49" points="101.16 197.19 77.94 171.89 81.07 171.89 101.16 193.77 101.16 197.19"/><polygon class="cls-50" points="101.16 200.6 74.81 171.89 77.94 171.89 101.16 197.19 101.16 200.6"/><polygon class="cls-51" points="101.16 204.01 71.68 171.89 74.81 171.89 101.16 200.6 101.16 204.01"/><polygon class="cls-52" points="101.16 207.42 68.54 171.89 71.68 171.89 101.16 204.01 101.16 207.42"/><polygon class="cls-53" points="101.16 210.83 65.41 171.89 68.54 171.89 101.16 207.42 101.16 210.83"/><polygon class="cls-54" points="101.16 214.24 62.28 171.89 65.41 171.89 101.16 210.83 101.16 214.24"/><polygon class="cls-55" points="101.16 217.66 59.15 171.89 62.28 171.89 101.16 214.24 101.16 217.66"/><polygon class="cls-56" points="101.16 221.07 56.02 171.89 59.15 171.89 101.16 217.66 101.16 221.07"/><polygon class="cls-57" points="101.16 224.48 52.88 171.89 56.02 171.89 101.16 221.07 101.16 224.48"/><polygon class="cls-58" points="101.16 227.89 49.75 171.89 52.88 171.89 101.16 224.48 101.16 227.89"/><polygon class="cls-59" points="101.16 231.3 46.62 171.89 49.75 171.89 101.16 227.89 101.16 231.3"/><polygon class="cls-60" points="101.16 234.72 43.49 171.89 46.62 171.89 101.16 231.3 101.16 234.72"/><polygon class="cls-61" points="101.16 238.13 40.36 171.89 43.49 171.89 101.16 234.72 101.16 238.13"/><polygon class="cls-62" points="101.16 241.54 37.23 171.89 40.36 171.89 101.16 238.13 101.16 241.54"/><polygon class="cls-63" points="101.16 244.95 34.09 171.89 37.23 171.89 101.16 241.54 101.16 244.95"/><polygon class="cls-64" points="101.16 248.36 30.96 171.89 34.09 171.89 101.16 244.95 101.16 248.36"/><polygon class="cls-65" points="101.16 251.77 27.83 171.89 30.96 171.89 101.16 248.36 101.16 251.77"/><polygon class="cls-66" points="101.16 255.19 24.7 171.89 27.83 171.89 101.16 251.77 101.16 255.19"/><polygon class="cls-67" points="101.16 258.6 21.57 171.89 24.7 171.89 101.16 255.19 101.16 258.6"/><polygon class="cls-68" points="101.16 261.23 100.77 261.58 18.43 171.89 21.57 171.89 101.16 258.6 101.16 261.23"/><polygon class="cls-69" points="100.77 261.58 99.07 263.14 15.79 172.42 16.38 171.89 18.43 171.89 100.77 261.58"/><rect class="cls-70" x="55.43" y="156.99" width="2.31" height="123.15" transform="translate(-132.9 95.81) rotate(-42.55)"/><rect class="cls-71" x="53.73" y="158.55" width="2.31" height="123.15" transform="translate(-134.4 95.08) rotate(-42.55)"/><rect class="cls-72" x="52.03" y="160.11" width="2.31" height="123.15" transform="translate(-135.91 94.34) rotate(-42.55)"/><rect class="cls-73" x="50.33" y="161.67" width="2.31" height="123.15" transform="translate(-137.41 93.6) rotate(-42.55)"/><polygon class="cls-74" points="92.27 269.38 91.39 270.2 89.89 270.2 7.3 180.22 9 178.66 92.27 269.38"/><polygon class="cls-75" points="86.75 270.2 6.85 183.15 6.85 180.63 7.3 180.22 89.89 270.2 86.75 270.2"/><polygon class="cls-76" points="83.62 270.2 6.85 186.56 6.85 183.15 86.75 270.2 83.62 270.2"/><polygon class="cls-77" points="80.49 270.2 6.85 189.98 6.85 186.56 83.62 270.2 80.49 270.2"/><polygon class="cls-78" points="77.36 270.2 6.85 193.39 6.85 189.98 80.49 270.2 77.36 270.2"/><polygon class="cls-79" points="74.23 270.2 6.85 196.8 6.85 193.39 77.36 270.2 74.23 270.2"/><polygon class="cls-79" points="6.85 196.8 74.23 270.2 6.85 270.2 6.85 196.8"/></g></g><g class="cls-80"><path class="cls-81" d="M81,202.31a13.23,13.23,0,0,1-9.85-4.38A48.43,48.43,0,0,1,62,182.35a50,50,0,0,1,43.49-67.14l3-.21-1.79,52.88-.94.79A33.7,33.7,0,0,0,94,190.33a13.13,13.13,0,0,1-9.22,11.43A13.37,13.37,0,0,1,81,202.31ZM102.76,121a44.45,44.45,0,0,0-35.63,59.43,43,43,0,0,0,8.13,13.82,7.59,7.59,0,0,0,13.24-4.47l0-.1a39.08,39.08,0,0,1,12.75-24.44Z"/><path class="cls-81" d="M202.42,202.32a12.74,12.74,0,0,1-3.76-.56,13.12,13.12,0,0,1-9.25-11.43,33.7,33.7,0,0,0-11.76-21.66l-.94-.79L174.92,115l3,.21a50,50,0,0,1,43.49,67.16,48.66,48.66,0,0,1-9.16,15.54A13.26,13.26,0,0,1,202.42,202.32Zm-20.28-37a39.18,39.18,0,0,1,12.75,24.44v.1a7.6,7.6,0,0,0,13.26,4.45,43,43,0,0,0,8.11-13.77A44.47,44.47,0,0,0,180.64,121Z"/><g class="cls-82"><rect class="cls-83" x="155.6" y="160.07" width="0.21" height="10.5"/><rect class="cls-42" x="155.81" y="160.07" width="0.82" height="10.5"/><rect class="cls-43" x="156.63" y="160.07" width="0.82" height="10.5"/><rect class="cls-44" x="157.45" y="160.07" width="0.82" height="10.5"/><rect class="cls-45" x="158.26" y="160.07" width="0.82" height="10.5"/><rect class="cls-46" x="159.08" y="160.07" width="0.82" height="10.5"/><rect class="cls-47" x="159.9" y="160.07" width="0.82" height="10.5"/><rect class="cls-48" x="160.72" y="160.07" width="0.82" height="10.5"/><rect class="cls-49" x="161.54" y="160.07" width="0.82" height="10.5"/><rect class="cls-50" x="162.36" y="160.07" width="0.82" height="10.5"/><rect class="cls-51" x="163.18" y="160.07" width="0.82" height="10.5"/><rect class="cls-52" x="164" y="160.07" width="0.82" height="10.5"/><rect class="cls-53" x="164.82" y="160.07" width="0.82" height="10.5"/><rect class="cls-54" x="165.63" y="160.07" width="0.46" height="10.5"/><rect class="cls-36" x="119.09" y="69.57" width="0.69" height="41.98"/><rect class="cls-37" x="119.78" y="69.57" width="0.82" height="41.98"/><rect class="cls-38" x="120.59" y="69.57" width="0.82" height="41.98"/><rect class="cls-39" x="121.41" y="69.57" width="0.82" height="41.98"/><rect class="cls-40" x="122.23" y="69.57" width="0.82" height="41.98"/><rect class="cls-41" x="123.05" y="69.57" width="0.82" height="41.98"/><rect class="cls-84" x="123.87" y="69.57" width="0.82" height="41.98"/><rect class="cls-85" x="124.69" y="69.57" width="0.82" height="41.98"/><rect class="cls-86" x="125.51" y="69.57" width="0.82" height="41.98"/><rect class="cls-87" x="126.33" y="69.57" width="0.82" height="41.98"/><rect class="cls-88" x="127.15" y="69.57" width="0.82" height="41.98"/><rect class="cls-89" x="127.96" y="69.57" width="0.82" height="41.98"/><rect class="cls-90" x="128.78" y="69.57" width="0.82" height="41.98"/><rect class="cls-91" x="129.6" y="69.57" width="0.82" height="41.98"/><rect class="cls-92" x="130.42" y="69.57" width="0.82" height="41.98"/><rect class="cls-93" x="131.24" y="69.57" width="0.82" height="41.98"/><rect class="cls-94" x="132.06" y="69.57" width="0.82" height="41.98"/><rect class="cls-95" x="132.88" y="69.57" width="0.82" height="41.98"/><rect class="cls-96" x="133.7" y="69.57" width="0.82" height="41.98"/><rect class="cls-97" x="134.52" y="69.57" width="0.82" height="41.98"/><rect class="cls-98" x="135.33" y="69.57" width="0.82" height="41.98"/><rect class="cls-99" x="136.15" y="69.57" width="0.82" height="41.98"/><rect class="cls-100" x="136.97" y="69.57" width="0.82" height="41.98"/><rect class="cls-101" x="137.79" y="69.57" width="0.82" height="41.98"/><rect class="cls-102" x="138.61" y="69.57" width="0.82" height="41.98"/><rect class="cls-103" x="139.43" y="69.57" width="0.82" height="41.98"/><rect class="cls-104" x="140.25" y="69.57" width="0.82" height="41.98"/><rect class="cls-105" x="141.07" y="69.57" width="0.82" height="41.98"/><rect class="cls-106" x="141.89" y="69.57" width="0.82" height="41.98"/><rect class="cls-107" x="142.7" y="69.57" width="0.82" height="41.98"/><rect class="cls-108" x="143.52" y="69.57" width="0.82" height="41.98"/><rect class="cls-109" x="144.34" y="69.57" width="0.82" height="41.98"/><rect class="cls-110" x="145.16" y="69.57" width="0.82" height="41.98"/><rect class="cls-111" x="145.98" y="69.57" width="0.82" height="41.98"/><rect class="cls-112" x="146.8" y="69.57" width="0.82" height="41.98"/><rect class="cls-113" x="147.62" y="69.57" width="0.82" height="41.98"/><rect class="cls-114" x="148.44" y="69.57" width="0.82" height="41.98"/><rect class="cls-115" x="149.26" y="69.57" width="0.82" height="41.98"/><rect class="cls-116" x="150.07" y="69.57" width="0.82" height="41.98"/><rect class="cls-117" x="150.89" y="69.57" width="0.82" height="41.98"/><rect class="cls-118" x="151.71" y="69.57" width="0.82" height="41.98"/><rect class="cls-119" x="152.53" y="69.57" width="0.82" height="41.98"/><rect class="cls-120" x="153.35" y="69.57" width="0.82" height="41.98"/><rect class="cls-121" x="154.17" y="69.57" width="0.82" height="41.98"/><rect class="cls-83" x="154.99" y="69.57" width="0.82" height="41.98"/><rect class="cls-42" x="155.81" y="69.57" width="0.82" height="41.98"/><rect class="cls-43" x="156.63" y="69.57" width="0.82" height="41.98"/><rect class="cls-44" x="157.45" y="69.57" width="0.82" height="41.98"/><rect class="cls-45" x="158.26" y="69.57" width="0.82" height="41.98"/><rect class="cls-46" x="159.08" y="69.57" width="0.82" height="41.98"/><rect class="cls-47" x="159.9" y="69.57" width="0.82" height="41.98"/><rect class="cls-48" x="160.72" y="69.57" width="0.27" height="41.98"/><rect class="cls-97" x="134.75" y="160.33" width="0.58" height="10.5"/><rect class="cls-98" x="135.33" y="160.33" width="0.82" height="10.5"/><rect class="cls-99" x="136.15" y="160.33" width="0.82" height="10.5"/><rect class="cls-100" x="136.97" y="160.33" width="0.82" height="10.5"/><rect class="cls-101" x="137.79" y="160.33" width="0.82" height="10.5"/><rect class="cls-102" x="138.61" y="160.33" width="0.82" height="10.5"/><rect class="cls-103" x="139.43" y="160.33" width="0.82" height="10.5"/><rect class="cls-104" x="140.25" y="160.33" width="0.82" height="10.5"/><rect class="cls-105" x="141.07" y="160.33" width="0.82" height="10.5"/><rect class="cls-106" x="141.89" y="160.33" width="0.82" height="10.5"/><rect class="cls-107" x="142.7" y="160.33" width="0.82" height="10.5"/><rect class="cls-108" x="143.52" y="160.33" width="0.82" height="10.5"/><rect class="cls-109" x="144.34" y="160.33" width="0.82" height="10.5"/><rect class="cls-110" x="145.16" y="160.33" width="0.09" height="10.5"/><rect class="cls-29" x="113.9" y="160.59" width="0.14" height="10.49"/><rect class="cls-30" x="114.04" y="160.59" width="0.82" height="10.49"/><rect class="cls-31" x="114.86" y="160.59" width="0.82" height="10.49"/><rect class="cls-32" x="115.68" y="160.59" width="0.82" height="10.49"/><rect class="cls-33" x="116.5" y="160.59" width="0.82" height="10.49"/><rect class="cls-34" x="117.32" y="160.59" width="0.82" height="10.49"/><rect class="cls-35" x="118.14" y="160.59" width="0.82" height="10.49"/><rect class="cls-36" x="118.96" y="160.59" width="0.82" height="10.49"/><rect class="cls-37" x="119.78" y="160.59" width="0.82" height="10.49"/><rect class="cls-38" x="120.59" y="160.59" width="0.82" height="10.49"/><rect class="cls-39" x="121.41" y="160.59" width="0.82" height="10.49"/><rect class="cls-40" x="122.23" y="160.59" width="0.82" height="10.49"/><rect class="cls-41" x="123.05" y="160.59" width="0.82" height="10.49"/><rect class="cls-84" x="123.87" y="160.59" width="0.52" height="10.49"/><rect class="cls-5" x="92.64" y="33.88" width="0.93" height="158.14"/><rect class="cls-5" x="93.57" y="33.88" width="0.82" height="158.14"/><rect class="cls-6" x="94.39" y="33.88" width="0.82" height="158.14"/><rect class="cls-7" x="95.21" y="33.88" width="0.82" height="158.14"/><rect class="cls-8" x="96.03" y="33.88" width="0.82" height="158.14"/><rect class="cls-9" x="96.85" y="33.88" width="0.82" height="158.14"/><rect class="cls-10" x="97.67" y="33.88" width="0.82" height="158.14"/><rect class="cls-11" x="98.48" y="33.88" width="0.82" height="158.14"/><rect class="cls-12" x="99.3" y="33.88" width="0.82" height="158.14"/><rect class="cls-13" x="100.12" y="33.88" width="0.82" height="158.14"/><rect class="cls-14" x="100.94" y="33.88" width="0.82" height="158.14"/><rect class="cls-15" x="101.76" y="33.88" width="0.82" height="158.14"/><rect class="cls-16" x="102.58" y="33.88" width="0.82" height="158.14"/><rect class="cls-17" x="103.4" y="33.88" width="0.82" height="158.14"/><rect class="cls-18" x="104.22" y="33.88" width="0.82" height="158.14"/><rect class="cls-19" x="105.04" y="33.88" width="0.82" height="158.14"/><rect class="cls-20" x="105.85" y="33.88" width="0.82" height="158.14"/><rect class="cls-21" x="106.67" y="33.88" width="0.82" height="158.14"/><rect class="cls-22" x="107.49" y="33.88" width="0.82" height="158.14"/><rect class="cls-23" x="108.31" y="33.88" width="0.82" height="158.14"/><rect class="cls-24" x="109.13" y="33.88" width="0.82" height="158.14"/><rect class="cls-25" x="109.95" y="33.88" width="0.82" height="158.14"/><rect class="cls-26" x="110.77" y="33.88" width="0.82" height="158.14"/><rect class="cls-27" x="111.59" y="33.88" width="0.82" height="158.14"/><rect class="cls-28" x="112.41" y="33.88" width="0.82" height="158.14"/><rect class="cls-29" x="113.22" y="33.88" width="0.82" height="158.14"/><rect class="cls-30" x="114.04" y="33.88" width="0.82" height="158.14"/><rect class="cls-31" x="114.86" y="33.88" width="0.82" height="158.14"/><rect class="cls-32" x="115.68" y="33.88" width="0.82" height="158.14"/><rect class="cls-33" x="116.5" y="33.88" width="0.82" height="158.14"/><rect class="cls-34" x="117.32" y="33.88" width="0.82" height="158.14"/><rect class="cls-35" x="118.14" y="33.88" width="0.82" height="158.14"/><rect class="cls-36" x="118.96" y="33.88" width="0.82" height="158.14"/><rect class="cls-37" x="119.78" y="33.88" width="0.82" height="158.14"/><rect class="cls-38" x="120.59" y="33.88" width="0.82" height="158.14"/><rect class="cls-39" x="121.41" y="33.88" width="0.82" height="158.14"/><rect class="cls-40" x="122.23" y="33.88" width="0.82" height="158.14"/><rect class="cls-41" x="123.05" y="33.88" width="0.82" height="158.14"/><rect class="cls-84" x="123.87" y="33.88" width="0.82" height="158.14"/><rect class="cls-85" x="124.69" y="33.88" width="0.82" height="158.14"/><rect class="cls-86" x="125.51" y="33.88" width="0.82" height="158.14"/><rect class="cls-87" x="126.33" y="33.88" width="0.82" height="158.14"/><rect class="cls-88" x="127.15" y="33.88" width="0.82" height="158.14"/><rect class="cls-89" x="127.96" y="33.88" width="0.82" height="158.14"/><rect class="cls-90" x="128.78" y="33.88" width="0.82" height="158.14"/><rect class="cls-91" x="129.6" y="33.88" width="0.82" height="158.14"/><rect class="cls-92" x="130.42" y="33.88" width="0.82" height="158.14"/><rect class="cls-93" x="131.24" y="33.88" width="0.82" height="158.14"/><rect class="cls-94" x="132.06" y="33.88" width="0.82" height="158.14"/><rect class="cls-95" x="132.88" y="33.88" width="0.82" height="158.14"/><rect class="cls-96" x="133.7" y="33.88" width="0.82" height="158.14"/><rect class="cls-97" x="134.52" y="33.88" width="0.82" height="158.14"/><rect class="cls-98" x="135.33" y="33.88" width="0.82" height="158.14"/><rect class="cls-99" x="136.15" y="33.88" width="0.82" height="158.14"/><rect class="cls-100" x="136.97" y="33.88" width="0.82" height="158.14"/><rect class="cls-101" x="137.79" y="33.88" width="0.82" height="158.14"/><rect class="cls-102" x="138.61" y="33.88" width="0.82" height="158.14"/><rect class="cls-103" x="139.43" y="33.88" width="0.82" height="158.14"/><rect class="cls-104" x="140.25" y="33.88" width="0.82" height="158.14"/><rect class="cls-105" x="141.07" y="33.88" width="0.82" height="158.14"/><rect class="cls-106" x="141.89" y="33.88" width="0.82" height="158.14"/><rect class="cls-107" x="142.7" y="33.88" width="0.82" height="158.14"/><rect class="cls-108" x="143.52" y="33.88" width="0.82" height="158.14"/><rect class="cls-109" x="144.34" y="33.88" width="0.82" height="158.14"/><rect class="cls-110" x="145.16" y="33.88" width="0.82" height="158.14"/><rect class="cls-111" x="145.98" y="33.88" width="0.82" height="158.14"/><rect class="cls-112" x="146.8" y="33.88" width="0.82" height="158.14"/><rect class="cls-113" x="147.62" y="33.88" width="0.82" height="158.14"/><rect class="cls-114" x="148.44" y="33.88" width="0.82" height="158.14"/><rect class="cls-115" x="149.26" y="33.88" width="0.82" height="158.14"/><rect class="cls-116" x="150.07" y="33.88" width="0.82" height="158.14"/><rect class="cls-117" x="150.89" y="33.88" width="0.82" height="158.14"/><rect class="cls-118" x="151.71" y="33.88" width="0.82" height="158.14"/><rect class="cls-119" x="152.53" y="33.88" width="0.82" height="158.14"/><rect class="cls-120" x="153.35" y="33.88" width="0.82" height="158.14"/><rect class="cls-121" x="154.17" y="33.88" width="0.82" height="158.14"/><rect class="cls-83" x="154.99" y="33.88" width="0.82" height="158.14"/><rect class="cls-42" x="155.81" y="33.88" width="0.82" height="158.14"/><rect class="cls-43" x="156.63" y="33.88" width="0.82" height="158.14"/><rect class="cls-44" x="157.45" y="33.88" width="0.82" height="158.14"/><rect class="cls-45" x="158.26" y="33.88" width="0.82" height="158.14"/><rect class="cls-46" x="159.08" y="33.88" width="0.82" height="158.14"/><rect class="cls-47" x="159.9" y="33.88" width="0.82" height="158.14"/><rect class="cls-48" x="160.72" y="33.88" width="0.82" height="158.14"/><rect class="cls-49" x="161.54" y="33.88" width="0.82" height="158.14"/><rect class="cls-50" x="162.36" y="33.88" width="0.82" height="158.14"/><rect class="cls-51" x="163.18" y="33.88" width="0.82" height="158.14"/><rect class="cls-52" x="164" y="33.88" width="0.82" height="158.14"/><rect class="cls-53" x="164.82" y="33.88" width="0.82" height="158.14"/><rect class="cls-54" x="165.63" y="33.88" width="0.82" height="158.14"/><rect class="cls-55" x="166.45" y="33.88" width="0.82" height="158.14"/><rect class="cls-56" x="167.27" y="33.88" width="0.82" height="158.14"/><rect class="cls-57" x="168.09" y="33.88" width="0.82" height="158.14"/><rect class="cls-58" x="168.91" y="33.88" width="0.82" height="158.14"/><rect class="cls-59" x="169.73" y="33.88" width="0.82" height="158.14"/><rect class="cls-60" x="170.55" y="33.88" width="0.82" height="158.14"/><rect class="cls-61" x="171.37" y="33.88" width="0.82" height="158.14"/><rect class="cls-62" x="172.19" y="33.88" width="0.82" height="158.14"/><rect class="cls-63" x="173" y="33.88" width="0.82" height="158.14"/><rect class="cls-64" x="173.82" y="33.88" width="0.82" height="158.14"/><rect class="cls-65" x="174.64" y="33.88" width="0.82" height="158.14"/><rect class="cls-66" x="175.46" y="33.88" width="0.82" height="158.14"/><rect class="cls-67" x="176.28" y="33.88" width="0.82" height="158.14"/><rect class="cls-68" x="177.1" y="33.88" width="0.82" height="158.14"/><rect class="cls-69" x="177.92" y="33.88" width="0.82" height="158.14"/><rect class="cls-70" x="178.74" y="33.88" width="0.82" height="158.14"/><rect class="cls-71" x="179.56" y="33.88" width="0.82" height="158.14"/><rect class="cls-72" x="180.37" y="33.88" width="0.82" height="158.14"/><rect class="cls-73" x="181.19" y="33.88" width="0.82" height="158.14"/><rect class="cls-74" x="182.01" y="33.88" width="0.82" height="158.14"/><rect class="cls-75" x="182.83" y="33.88" width="0.82" height="158.14"/><rect class="cls-76" x="183.65" y="33.88" width="0.82" height="158.14"/><rect class="cls-77" x="184.47" y="33.88" width="0.82" height="158.14"/><rect class="cls-78" x="185.29" y="33.88" width="0.82" height="158.14"/><rect class="cls-79" x="186.11" y="33.88" width="0.82" height="158.14"/><rect class="cls-79" x="186.93" y="33.88" width="0.14" height="158.14"/></g><g class="cls-122"><rect class="cls-5" x="128.76" y="80.06" width="0.93" height="21.74"/><rect class="cls-5" x="129.69" y="80.06" width="0.18" height="21.74"/><rect class="cls-6" x="129.87" y="80.06" width="0.18" height="21.74"/><rect class="cls-7" x="130.05" y="80.06" width="0.18" height="21.74"/><rect class="cls-8" x="130.23" y="80.06" width="0.18" height="21.74"/><rect class="cls-9" x="130.42" y="80.06" width="0.18" height="21.74"/><rect class="cls-10" x="130.6" y="80.06" width="0.18" height="21.74"/><rect class="cls-11" x="130.78" y="80.06" width="0.18" height="21.74"/><rect class="cls-12" x="130.96" y="80.06" width="0.18" height="21.74"/><rect class="cls-13" x="131.14" y="80.06" width="0.18" height="21.74"/><rect class="cls-14" x="131.33" y="80.06" width="0.18" height="21.74"/><rect class="cls-15" x="131.51" y="80.06" width="0.18" height="21.74"/><rect class="cls-16" x="131.69" y="80.06" width="0.18" height="21.74"/><rect class="cls-17" x="131.87" y="80.06" width="0.18" height="21.74"/><rect class="cls-18" x="132.05" y="80.06" width="0.18" height="21.74"/><rect class="cls-19" x="132.24" y="80.06" width="0.18" height="21.74"/><rect class="cls-20" x="132.42" y="80.06" width="0.18" height="21.74"/><rect class="cls-21" x="132.6" y="80.06" width="0.18" height="21.74"/><rect class="cls-22" x="132.78" y="80.06" width="0.18" height="21.74"/><rect class="cls-23" x="132.96" y="80.06" width="0.18" height="21.74"/><rect class="cls-24" x="133.14" y="80.06" width="0.18" height="21.74"/><rect class="cls-25" x="133.33" y="80.06" width="0.18" height="21.74"/><rect class="cls-26" x="133.51" y="80.06" width="0.18" height="21.74"/><rect class="cls-27" x="133.69" y="80.06" width="0.18" height="21.74"/><rect class="cls-28" x="133.87" y="80.06" width="0.18" height="21.74"/><rect class="cls-29" x="134.05" y="80.06" width="0.18" height="21.74"/><rect class="cls-30" x="134.24" y="80.06" width="0.18" height="21.74"/><rect class="cls-31" x="134.42" y="80.06" width="0.18" height="21.74"/><rect class="cls-32" x="134.6" y="80.06" width="0.18" height="21.74"/><rect class="cls-33" x="134.78" y="80.06" width="0.18" height="21.74"/><rect class="cls-34" x="134.96" y="80.06" width="0.18" height="21.74"/><rect class="cls-35" x="135.15" y="80.06" width="0.18" height="21.74"/><rect class="cls-36" x="135.33" y="80.06" width="0.18" height="21.74"/><rect class="cls-37" x="135.51" y="80.06" width="0.18" height="21.74"/><rect class="cls-38" x="135.69" y="80.06" width="0.18" height="21.74"/><rect class="cls-39" x="135.87" y="80.06" width="0.18" height="21.74"/><rect class="cls-40" x="136.05" y="80.06" width="0.18" height="21.74"/><rect class="cls-41" x="136.24" y="80.06" width="0.18" height="21.74"/><rect class="cls-84" x="136.42" y="80.06" width="0.18" height="21.74"/><rect class="cls-85" x="136.6" y="80.06" width="0.18" height="21.74"/><rect class="cls-86" x="136.78" y="80.06" width="0.18" height="21.74"/><rect class="cls-87" x="136.96" y="80.06" width="0.18" height="21.74"/><rect class="cls-88" x="137.15" y="80.06" width="0.18" height="21.74"/><rect class="cls-89" x="137.33" y="80.06" width="0.18" height="21.74"/><rect class="cls-90" x="137.51" y="80.06" width="0.18" height="21.74"/><rect class="cls-91" x="137.69" y="80.06" width="0.18" height="21.74"/><rect class="cls-92" x="137.87" y="80.06" width="0.18" height="21.74"/><rect class="cls-93" x="138.06" y="80.06" width="0.18" height="21.74"/><rect class="cls-94" x="138.24" y="80.06" width="0.18" height="21.74"/><rect class="cls-95" x="138.42" y="80.06" width="0.18" height="21.74"/><rect class="cls-96" x="138.6" y="80.06" width="0.18" height="21.74"/><rect class="cls-97" x="138.78" y="80.06" width="0.18" height="21.74"/><rect class="cls-98" x="138.97" y="80.06" width="0.18" height="21.74"/><rect class="cls-99" x="139.15" y="80.06" width="0.18" height="21.74"/><rect class="cls-100" x="139.33" y="80.06" width="0.18" height="21.74"/><rect class="cls-101" x="139.51" y="80.06" width="0.18" height="21.74"/><rect class="cls-102" x="139.69" y="80.06" width="0.18" height="21.74"/><rect class="cls-103" x="139.87" y="80.06" width="0.18" height="21.74"/><rect class="cls-104" x="140.06" y="80.06" width="0.18" height="21.74"/><rect class="cls-105" x="140.24" y="80.06" width="0.18" height="21.74"/><rect class="cls-106" x="140.42" y="80.06" width="0.18" height="21.74"/><rect class="cls-107" x="140.6" y="80.06" width="0.18" height="21.74"/><rect class="cls-108" x="140.78" y="80.06" width="0.18" height="21.74"/><rect class="cls-109" x="140.97" y="80.06" width="0.18" height="21.74"/><rect class="cls-110" x="141.15" y="80.06" width="0.18" height="21.74"/><rect class="cls-111" x="141.33" y="80.06" width="0.18" height="21.74"/><rect class="cls-112" x="141.51" y="80.06" width="0.18" height="21.74"/><rect class="cls-113" x="141.69" y="80.06" width="0.18" height="21.74"/><rect class="cls-114" x="141.88" y="80.06" width="0.18" height="21.74"/><rect class="cls-115" x="142.06" y="80.06" width="0.18" height="21.74"/><rect class="cls-116" x="142.24" y="80.06" width="0.18" height="21.74"/><rect class="cls-117" x="142.42" y="80.06" width="0.18" height="21.74"/><rect class="cls-118" x="142.6" y="80.06" width="0.18" height="21.74"/><rect class="cls-119" x="142.78" y="80.06" width="0.18" height="21.74"/><rect class="cls-120" x="142.97" y="80.06" width="0.18" height="21.74"/><rect class="cls-121" x="143.15" y="80.06" width="0.18" height="21.74"/><rect class="cls-83" x="143.33" y="80.06" width="0.18" height="21.74"/><rect class="cls-42" x="143.51" y="80.06" width="0.18" height="21.74"/><rect class="cls-43" x="143.69" y="80.06" width="0.18" height="21.74"/><rect class="cls-44" x="143.88" y="80.06" width="0.18" height="21.74"/><rect class="cls-45" x="144.06" y="80.06" width="0.18" height="21.74"/><rect class="cls-46" x="144.24" y="80.06" width="0.18" height="21.74"/><rect class="cls-47" x="144.42" y="80.06" width="0.18" height="21.74"/><rect class="cls-48" x="144.6" y="80.06" width="0.18" height="21.74"/><rect class="cls-49" x="144.79" y="80.06" width="0.18" height="21.74"/><rect class="cls-50" x="144.97" y="80.06" width="0.18" height="21.74"/><rect class="cls-51" x="145.15" y="80.06" width="0.18" height="21.74"/><rect class="cls-52" x="145.33" y="80.06" width="0.18" height="21.74"/><rect class="cls-53" x="145.51" y="80.06" width="0.18" height="21.74"/><rect class="cls-54" x="145.69" y="80.06" width="0.18" height="21.74"/><rect class="cls-55" x="145.88" y="80.06" width="0.18" height="21.74"/><rect class="cls-56" x="146.06" y="80.06" width="0.18" height="21.74"/><rect class="cls-57" x="146.24" y="80.06" width="0.18" height="21.74"/><rect class="cls-58" x="146.42" y="80.06" width="0.18" height="21.74"/><rect class="cls-59" x="146.6" y="80.06" width="0.18" height="21.74"/><rect class="cls-60" x="146.79" y="80.06" width="0.18" height="21.74"/><rect class="cls-61" x="146.97" y="80.06" width="0.18" height="21.74"/><rect class="cls-62" x="147.15" y="80.06" width="0.18" height="21.74"/><rect class="cls-63" x="147.33" y="80.06" width="0.18" height="21.74"/><rect class="cls-64" x="147.51" y="80.06" width="0.18" height="21.74"/><rect class="cls-65" x="147.7" y="80.06" width="0.18" height="21.74"/><rect class="cls-66" x="147.88" y="80.06" width="0.18" height="21.74"/><rect class="cls-67" x="148.06" y="80.06" width="0.18" height="21.74"/><rect class="cls-68" x="148.24" y="80.06" width="0.18" height="21.74"/><rect class="cls-69" x="148.42" y="80.06" width="0.18" height="21.74"/><rect class="cls-70" x="148.61" y="80.06" width="0.18" height="21.74"/><rect class="cls-71" x="148.79" y="80.06" width="0.18" height="21.74"/><rect class="cls-72" x="148.97" y="80.06" width="0.18" height="21.74"/><rect class="cls-73" x="149.15" y="80.06" width="0.18" height="21.74"/><rect class="cls-74" x="149.33" y="80.06" width="0.18" height="21.74"/><rect class="cls-75" x="149.51" y="80.06" width="0.18" height="21.74"/><rect class="cls-76" x="149.7" y="80.06" width="0.18" height="21.74"/><rect class="cls-77" x="149.88" y="80.06" width="0.18" height="21.74"/><rect class="cls-78" x="150.06" y="80.06" width="0.18" height="21.74"/><rect class="cls-79" x="150.24" y="80.06" width="0.18" height="21.74"/><rect class="cls-79" x="150.42" y="80.06" width="0.05" height="21.74"/></g><path class="cls-81" d="M121.42,237.32a2.76,2.76,0,0,1-2.75-2.76V201.4a2.76,2.76,0,0,1,5.51,0v33.16A2.77,2.77,0,0,1,121.42,237.32Z"/><path class="cls-81" d="M139.9,247.85a2.77,2.77,0,0,1-2.76-2.76V201.4a2.76,2.76,0,0,1,5.51,0v43.69A2.76,2.76,0,0,1,139.9,247.85Z"/><path class="cls-81" d="M158.58,227.54a2.77,2.77,0,0,1-2.76-2.76V201.4a2.76,2.76,0,0,1,5.51,0v23.38A2.76,2.76,0,0,1,158.58,227.54Z"/><path class="cls-81" d="M53.64,270.24a2.76,2.76,0,0,1-2.45-1.48,25,25,0,1,1,47.15-13,2.75,2.75,0,1,1-5.5.31,19.5,19.5,0,0,0-39,1.15,19.28,19.28,0,0,0,2.2,9,2.75,2.75,0,0,1-2.44,4Z"/><path class="cls-81" d="M115.25,263.67a2.68,2.68,0,0,1-1.63-.54,2.74,2.74,0,0,1-.58-3.85A11.74,11.74,0,1,0,94,245.57a2.76,2.76,0,0,1-4.51-3.17,17.25,17.25,0,0,1,31.37,9.9,17.07,17.07,0,0,1-3.37,10.25A2.72,2.72,0,0,1,115.25,263.67Z"/><path class="cls-81" d="M226.36,270.24a2.75,2.75,0,0,1-2.44-4,19.28,19.28,0,0,0,2.2-9,19.5,19.5,0,0,0-39-1.15,2.75,2.75,0,1,1-5.5-.31,25,25,0,1,1,47.15,13A2.76,2.76,0,0,1,226.36,270.24Z"/><path class="cls-81" d="M164.75,263.67a2.74,2.74,0,0,1-2.22-1.12,17.07,17.07,0,0,1-3.37-10.25,17.25,17.25,0,0,1,31.37-9.9,2.76,2.76,0,0,1-4.51,3.17A11.74,11.74,0,1,0,167,259.28a2.75,2.75,0,0,1-2.21,4.39Z"/></g></g></g></svg>