<svg xmlns="http://www.w3.org/2000/svg" viewBox="0 0 361.05 53.81"><defs><style>.cls-1{fill:#fff;}.cls-2{fill:#1678ff;}</style></defs><title>1资源 1</title><g id="图层_2" data-name="图层 2"><g id="图层_1-2" data-name="图层 1"><path class="cls-1" d="M57.76,16.93H49.81v-4.7H71.44v4.7h-8V40.5H57.76Z"/><path class="cls-1" d="M95.55,15.8H101V28.35h.16l7.41-9.25h6.11l-7.41,8.75,8.1,12.65H109.3l-5.19-8.86L101,35.15V40.5H95.55Z"/><path class="cls-1" d="M116,29.84c0-6.95,4.85-11.27,10-11.27,5.88,0,8.94,4.32,8.94,10.24a10.59,10.59,0,0,1-.27,2.56H121.42c.46,3.51,2.75,5.35,5.92,5.35a8.88,8.88,0,0,0,4.82-1.49l1.91,3.44A13.55,13.55,0,0,1,126.58,41C120.62,41,116,36.87,116,29.84Zm14.09-2.18c0-2.9-1.3-4.74-4.05-4.74-2.25,0-4.24,1.61-4.66,4.74Z"/><path class="cls-1" d="M144.61,21.39c1.57-2.79,3.86-2.82,6.08-2.82a6,6,0,0,1,2.52.46l-1,4.85a6.76,6.76,0,0,0-2.22-.34c-1.68,0-3.71,1.1-4.93,4.2V40.5h-5.58V19.1l5.2-.07"/><path class="cls-1" d="M154.74,36.91,158,33a11.12,11.12,0,0,0,7.18,3.13c2.94,0,4.51-1.26,4.51-3.24s-1.72-2.75-4.24-3.82l-3.78-1.61c-2.87-1.18-5.74-3.48-5.74-7.6,0-4.63,4.05-8.18,9.79-8.18a12.55,12.55,0,0,1,8.86,3.63l-2.87,3.55a9,9,0,0,0-6-2.33c-2.49,0-4.09,1.11-4.09,3,0,2,2,2.75,4.43,3.71l3.71,1.57c3.43,1.41,5.69,3.59,5.69,7.68,0,4.62-3.86,8.56-10.39,8.56A15.09,15.09,0,0,1,154.74,36.91Z"/><path class="cls-1" d="M178,19.1h5.62L186,29.69c.42,2.06.69,4.12,1.07,6.23h.15c.42-2.11.8-4.21,1.34-6.23l2.56-10.59h5l2.68,10.59c.49,2.06.88,4.12,1.34,6.23h.19c.38-2.11.65-4.17,1.07-6.23l2.33-10.59h5.19l-5.27,21.4H197l-2.25-9.32c-.46-2-.81-4-1.23-6.23h-.19c-.42,2.25-.72,4.24-1.18,6.23L190,40.5h-6.42Z"/><path class="cls-1" d="M81.48,40A10.79,10.79,0,1,1,92.27,29.2,10.8,10.8,0,0,1,81.48,40Zm0-17.48a6.69,6.69,0,1,0,6.7,6.69A6.7,6.7,0,0,0,81.48,22.51Z"/><rect class="cls-1" x="88.18" y="18.57" width="4.1" height="22.07"/><path class="cls-1" d="M219.67,40A10.79,10.79,0,1,1,230.46,29.2,10.8,10.8,0,0,1,219.67,40Zm0-17.48a6.69,6.69,0,1,0,6.7,6.69A6.7,6.7,0,0,0,219.67,22.51Z"/><path class="cls-1" d="M245.66,40A10.79,10.79,0,1,1,256.45,29.2,10.8,10.8,0,0,1,245.66,40Zm0-17.48a6.69,6.69,0,1,0,6.69,6.69A6.7,6.7,0,0,0,245.66,22.51Z"/><rect class="cls-1" x="226.37" y="18.57" width="4.1" height="22.07"/><rect class="cls-1" x="234.43" y="18.57" width="4.1" height="31.98"/><polygon class="cls-2" points="7.78 14.4 18.73 16.39 30.39 14.4 18.81 17.98 7.78 14.4"/><path class="cls-1" d="M0,10.15V43.66L38.18,53.81V0ZM26.89,26.84l-3,4.32,1.9-9.33-2.86.7L19.09,41,15.28,22.53l-2.86-.7,1.91,9.33-3.05-4.32L9.06,18.59l8.5,2.61s1.51,11.37,1.53,11.6c0-.1,1.52-11.6,1.52-11.6l8.5-2.61Zm-8-7L9.12,16.67l9.68,1.77,10.31-1.77Z"/><path class="cls-1" d="M312.39,32.74c-1.49,0-2.81,1.06-3.09,3.14h5.78C315.08,34,314.22,32.74,312.39,32.74Z"/><path class="cls-1" d="M298.5,32.62a1.83,1.83,0,0,0,.81-1.62,1.7,1.7,0,0,0-.73-1.56,4.23,4.23,0,0,0-2.16-.46h-4.53v4.11h4.63A3.54,3.54,0,0,0,298.5,32.62Z"/><path class="cls-1" d="M354.65,17.57H274.7A6.41,6.41,0,0,0,268.31,24V45.15a6.41,6.41,0,0,0,6.39,6.39h79.95a6.41,6.41,0,0,0,6.4-6.39V24A6.42,6.42,0,0,0,354.65,17.57ZM303.29,41.13a5.63,5.63,0,0,1-3.13,3,13.55,13.55,0,0,1-4.06.47h-8V25.72h9.2a6,6,0,0,1,4.63,1.68,4.52,4.52,0,0,1,1.19,3.15,4.2,4.2,0,0,1-.85,2.78,4.24,4.24,0,0,1-1.47,1.08,4.24,4.24,0,0,1,2.32,1.9,6,6,0,0,1,.18,4.82Zm14.81-2.79h-8.75a3.74,3.74,0,0,0,3.93,3.55,5.83,5.83,0,0,0,3.2-1l1.26,2.28a8.89,8.89,0,0,1-5,1.58c-3.95,0-7-2.77-7-7.43s3.22-7.48,6.61-7.48c3.91,0,5.94,2.86,5.94,6.79A7,7,0,0,1,318.1,38.34Zm9.79-5.12H325.6v7.62a1.28,1.28,0,0,0,.23.9,2.22,2.22,0,0,0,1.29.23h.77v2.74l-1.74,0h-.47a4.39,4.39,0,0,1-3.08-.82,2.94,2.94,0,0,1-.69-2.21V33.22H320V30.59h1.9V26.8h3.69v3.79h2.29Zm15.28,11.07H339.9V42.8a7,7,0,1,1-3.75-12.95,7,7,0,0,1,3.75,1.09V30h3.27Z"/><path class="cls-1" d="M298.94,36.85a3.44,3.44,0,0,0-2-.57h-5v5.06h4.84a3.31,3.31,0,0,0,2.25-.68,2.6,2.6,0,0,0,.78-2.09A1.93,1.93,0,0,0,298.94,36.85Z"/><circle class="cls-1" cx="336.15" cy="36.87" r="3.75"/></g></g></svg>