<svg xmlns="http://www.w3.org/2000/svg" viewBox="0 0 937.93 196.82"><defs><style>.cls-1{fill:#fff;}</style></defs><title>Github资源 4</title><g id="图层_2" data-name="图层 2"><g id="图层_1-2" data-name="图层 1"><polygon class="cls-1" points="261.27 44.71 182.18 44.71 182.18 61.9 211.24 61.9 211.24 148.13 231.93 148.13 231.93 61.9 261.27 61.9 261.27 44.71"/><polygon class="cls-1" points="419.48 69.87 397.12 69.87 370.01 103.69 369.45 103.69 369.45 57.77 349.46 57.77 349.46 148.13 369.45 148.13 369.45 128.56 380.77 115.71 399.77 148.13 421.99 148.13 392.37 101.87 419.48 69.87"/><path class="cls-1" d="M460.57,67.91c-18.73,0-36.47,15.79-36.47,41.23,0,25.71,17,40.94,38.85,40.94a49.38,49.38,0,0,0,27.39-8.66l-7-12.58c-5.59,3.5-11.18,5.45-17.61,5.45-11.6,0-20-6.71-21.66-19.56h48.21a38.15,38.15,0,0,0,1-9.37C493.27,83.7,482.09,67.91,460.57,67.91ZM443.8,101.17c1.54-11.46,8.81-17.33,17.05-17.33,10.06,0,14.81,6.71,14.81,17.33Z"/><path class="cls-1" d="M528.91,78.23l.3-8.62-19,.26v78.26h20.4V101.45c4.47-11.32,11.88-15.37,18-15.37a24.59,24.59,0,0,1,8.1,1.26l3.64-17.75a22.16,22.16,0,0,0-9.23-1.68C543,67.91,534.64,68,528.91,78.23Z"/><path class="cls-1" d="M620.87,90.69,607.31,85c-8.8-3.49-16.21-6.15-16.21-13.55,0-6.85,5.87-10.91,15-10.91,8.52,0,15.37,3.08,21.94,8.53l10.48-13a45.91,45.91,0,0,0-32.42-13.27c-21,0-35.78,13-35.78,29.9,0,15.1,10.48,23.48,21,27.81l13.84,5.87c9.22,3.91,15.51,6.29,15.51,14,0,7.26-5.73,11.88-16.49,11.88-9.08,0-18.87-4.62-26.27-11.46L566,135a55.12,55.12,0,0,0,37.73,15.09c23.9,0,38-14.39,38-31.3C641.69,103.83,633.45,95.86,620.87,90.69Z"/><path class="cls-1" d="M745,69.87l-8.52,38.71c-1.54,7.54-2.52,15.09-3.92,22.78h-.7c-1.67-7.69-3.07-15.24-4.89-22.78l-9.78-38.71h-18.3l-9.37,38.71c-2,7.4-3.35,15.09-4.89,22.78H684c-1.4-7.69-2.37-15.24-3.91-22.78L671.6,69.87H651.06l20.27,78.26H694.8l8-34.1c1.67-7.27,2.79-14.54,4.33-22.78h.7c1.54,8.24,2.79,15.37,4.47,22.78l8.25,34.1h24.17L764,69.87Z"/><path class="cls-1" d="M322.5,75.87a39.47,39.47,0,1,0,0,61.84v10.91h15V67.91h-15ZM298,131.27a24.48,24.48,0,1,1,24.48-24.48A24.51,24.51,0,0,1,298,131.27Z"/><path class="cls-1" d="M898.47,67.33a39.31,39.31,0,0,0-26.06,9.86V67.91h-15v117h15V136.4a39.45,39.45,0,1,0,26.06-69.07Zm0,63.94A24.48,24.48,0,1,1,923,106.79,24.51,24.51,0,0,1,898.47,131.27Z"/><path class="cls-1" d="M827.92,75.87a39.47,39.47,0,1,0,0,61.84v10.91h15V67.91h-15Zm-24.48,55.4a24.48,24.48,0,1,1,24.48-24.48A24.51,24.51,0,0,1,803.44,131.27Z"/><polygon class="cls-1" points="28.46 52.65 68.51 59.96 111.16 52.65 68.78 65.78 28.46 52.65"/><path class="cls-1" d="M0,37.13V159.69l139.63,37.13V0ZM98.36,98.18,87.22,114l7-34.12L83.74,82.39,69.81,149.93,55.89,82.39,45.44,79.84l7,34.12L41.27,98.18,33.14,68l31.1,9.51s5.49,41.62,5.57,42.43c0-.34,5.57-42.43,5.57-42.43L106.48,68ZM69,72.58,33.35,61l35.42,6.46L106.48,61Z"/></g></g></svg>